<svg xmlns="http://www.w3.org/2000/svg" xmlns:xlink="http://www.w3.org/1999/xlink" width="100" zoomAndPan="magnify" viewBox="0 0 75 74.999997" height="100" preserveAspectRatio="xMidYMid meet" version="1.0"><defs><clipPath id="a75467a207"><path d="M 0 7.492188 L 39 7.492188 L 39 67 L 0 67 Z M 0 7.492188 " clip-rule="nonzero"/></clipPath></defs><g clip-path="url(#a75467a207)"><path fill="#ca6659" d="M 0.5625 49.847656 C 1.691406 60.925781 11.195312 67.492188 22.09375 66.464844 C 28.078125 65.898438 32.875 63.5625 36.210938 59.519531 C 34.867188 57.152344 34.027344 54.460938 33.730469 51.550781 C 33.1875 46.214844 34.050781 40.953125 36.292969 35.910156 C 36.535156 35.363281 36.792969 34.820312 37.058594 34.285156 C 35.9375 32.933594 34.5625 31.660156 32.914062 30.503906 C 31.09375 29.230469 29.21875 27.960938 27.199219 27.0625 C 25.261719 26.203125 25.097656 25.007812 25.625 23.265625 C 26.710938 19.683594 29.308594 17.339844 32.152344 15.257812 C 34.261719 13.710938 36.542969 12.402344 38.902344 10.886719 L 37.644531 7.496094 C 35.015625 8.363281 32.335938 9.042969 29.824219 10.109375 C 18.113281 15.089844 8.445312 22.421875 3.09375 34.433594 C 0.921875 39.3125 0.015625 44.484375 0.5625 49.847656 Z M 0.5625 49.847656 " fill-opacity="1" fill-rule="evenodd"/></g><path fill="#ca6659" d="M 36.664062 51.246094 C 37.699219 61.398438 46.410156 67.417969 56.394531 66.472656 C 64.8125 65.679688 70.667969 61.054688 73.054688 52.835938 C 74.984375 46.191406 73.605469 38.628906 66.3125 33.519531 C 64.640625 32.351562 62.921875 31.1875 61.074219 30.367188 C 59.296875 29.578125 59.148438 28.480469 59.628906 26.886719 C 60.621094 23.605469 63.003906 21.453125 65.609375 19.546875 C 67.546875 18.128906 69.636719 16.929688 71.796875 15.542969 L 70.644531 12.4375 C 68.234375 13.230469 65.78125 13.851562 63.476562 14.832031 C 52.746094 19.390625 43.886719 26.109375 38.988281 37.117188 C 36.996094 41.589844 36.164062 46.335938 36.664062 51.246094 Z M 36.664062 51.246094 " fill-opacity="1" fill-rule="evenodd"/></svg>