<svg xmlns="http://www.w3.org/2000/svg" xmlns:xlink="http://www.w3.org/1999/xlink" width="100" zoomAndPan="magnify" viewBox="0 0 75 74.999997" height="100" preserveAspectRatio="xMidYMid meet" version="1.0"><defs><clipPath id="395d11c7e6"><path d="M 36 8 L 75 8 L 75 67.75 L 36 67.75 Z M 36 8 " clip-rule="nonzero"/></clipPath></defs><g clip-path="url(#395d11c7e6)"><path fill="#ca6659" d="M 74.4375 25.394531 C 73.308594 14.316406 63.804688 7.75 52.90625 8.777344 C 46.921875 9.34375 42.125 11.679688 38.789062 15.722656 C 40.132812 18.089844 40.972656 20.78125 41.269531 23.691406 C 41.8125 29.027344 40.949219 34.289062 38.707031 39.332031 C 38.464844 39.878906 38.207031 40.421875 37.941406 40.957031 C 39.0625 42.308594 40.4375 43.582031 42.085938 44.738281 C 43.90625 46.011719 45.78125 47.28125 47.800781 48.179688 C 49.738281 49.039062 49.902344 50.234375 49.375 51.976562 C 48.289062 55.558594 45.691406 57.902344 42.847656 59.984375 C 40.738281 61.53125 38.457031 62.839844 36.097656 64.355469 L 37.355469 67.746094 C 39.984375 66.878906 42.664062 66.199219 45.175781 65.132812 C 56.886719 60.152344 66.554688 52.820312 71.90625 40.808594 C 74.078125 35.929688 74.984375 30.757812 74.4375 25.394531 Z M 74.4375 25.394531 " fill-opacity="1" fill-rule="evenodd"/></g><path fill="#ca6659" d="M 38.335938 23.996094 C 37.300781 13.84375 28.589844 7.824219 18.605469 8.769531 C 10.1875 9.5625 4.332031 14.1875 1.945312 22.40625 C 0.015625 29.050781 1.394531 36.613281 8.6875 41.722656 C 10.359375 42.890625 12.078125 44.054688 13.925781 44.875 C 15.703125 45.664062 15.851562 46.761719 15.371094 48.355469 C 14.378906 51.636719 11.996094 53.789062 9.390625 55.695312 C 7.453125 57.113281 5.363281 58.3125 3.203125 59.699219 L 4.355469 62.804688 C 6.765625 62.011719 9.21875 61.390625 11.523438 60.410156 C 22.253906 55.851562 31.113281 49.132812 36.011719 38.125 C 38.003906 33.652344 38.835938 28.90625 38.335938 23.996094 Z M 38.335938 23.996094 " fill-opacity="1" fill-rule="evenodd"/></svg>