<svg xmlns="http://www.w3.org/2000/svg" xmlns:xlink="http://www.w3.org/1999/xlink" width="100" zoomAndPan="magnify" viewBox="0 0 75 74.999997" height="100" preserveAspectRatio="xMidYMid meet" version="1.0"><defs><clipPath id="cc10f48470"><path d="M 13.316406 9.582031 L 61.316406 9.582031 L 61.316406 65.082031 L 13.316406 65.082031 Z M 13.316406 9.582031 " clip-rule="nonzero"/></clipPath><clipPath id="1fcd073234"><path d="M 23 22.125 L 30 22.125 L 30 40.875 L 23 40.875 Z M 23 22.125 " clip-rule="nonzero"/></clipPath><clipPath id="11f73adfb7"><path d="M 26.625 30.675781 C 27.074219 28.5 28.199219 28.726562 28.5 29.175781 C 28.949219 29.851562 28.574219 32.773438 27.898438 33.449219 C 27.449219 33.898438 26.398438 34.125 25.949219 33.824219 C 25.199219 33.375 24.523438 30 24.898438 29.550781 C 25.125 29.324219 25.800781 29.324219 26.023438 29.550781 C 26.476562 30 26.476562 32.851562 26.101562 33.75 C 25.875 34.273438 25.351562 34.726562 24.976562 34.726562 C 24.523438 34.726562 23.699219 34.273438 23.550781 33.75 C 23.25 32.925781 24.148438 30.226562 24.898438 29.851562 C 25.351562 29.625 26.25 29.773438 26.699219 30.300781 C 27.601562 31.199219 28.351562 35.25 28.125 36.601562 C 28.050781 37.273438 27.675781 37.949219 27.300781 38.101562 C 26.925781 38.25 26.101562 37.949219 25.726562 37.425781 C 25.125 36.601562 25.125 33.675781 25.5 32.699219 C 25.726562 32.175781 26.175781 31.800781 26.550781 31.726562 C 26.925781 31.648438 27.601562 31.875 27.898438 32.324219 C 28.5 33.300781 28.273438 37.726562 27.601562 38.699219 C 27.300781 39.226562 26.625 39.449219 26.25 39.375 C 25.800781 39.300781 25.351562 38.625 25.199219 38.023438 C 25.050781 37.273438 25.574219 35.550781 26.023438 35.023438 C 26.324219 34.726562 26.773438 34.574219 27.148438 34.574219 C 27.523438 34.574219 27.976562 34.800781 28.199219 35.25 C 28.574219 36 28.351562 38.550781 27.976562 39.449219 C 27.75 39.976562 27.300781 40.425781 26.925781 40.574219 C 26.550781 40.648438 26.023438 40.5 25.726562 40.273438 C 25.425781 40.050781 25.351562 39.675781 25.351562 39.074219 C 25.273438 37.5 26.175781 31.726562 27.148438 30.523438 C 27.523438 30 28.125 29.773438 28.5 29.851562 C 28.800781 29.925781 29.101562 30.226562 29.324219 30.601562 C 29.699219 31.425781 29.773438 33.75 29.625 34.949219 C 29.476562 35.773438 29.25 36.898438 28.800781 37.050781 C 28.351562 37.199219 27.449219 36.601562 27.074219 35.925781 C 26.324219 34.648438 26.101562 29.175781 26.625 28.875 C 26.851562 28.726562 27.300781 29.550781 27.675781 29.550781 C 28.050781 29.550781 28.800781 28.726562 28.949219 28.875 C 29.101562 29.023438 28.800781 30.226562 28.425781 30.449219 C 28.050781 30.675781 27.148438 30.675781 26.699219 30.226562 C 25.800781 29.398438 24.898438 25.125 25.199219 23.925781 C 25.351562 23.398438 25.800781 22.949219 26.175781 22.875 C 26.550781 22.800781 27.375 23.175781 27.601562 23.625 C 27.976562 24.449219 27.449219 27.375 26.851562 28.050781 C 26.476562 28.425781 25.875 28.574219 25.5 28.5 C 25.125 28.425781 24.675781 27.824219 24.601562 27.449219 C 24.523438 27.074219 24.898438 26.476562 25.199219 26.25 C 25.5 26.023438 26.175781 25.949219 26.398438 26.175781 C 26.773438 26.476562 26.925781 27.824219 26.699219 28.199219 C 26.550781 28.5 25.949219 28.648438 25.574219 28.574219 C 25.273438 28.5 24.824219 28.125 24.675781 27.824219 C 24.523438 27.523438 24.601562 26.925781 24.824219 26.625 C 25.050781 26.324219 25.949219 25.949219 26.25 26.101562 C 26.625 26.324219 27.074219 27.75 26.851562 28.125 C 26.625 28.425781 25.648438 28.574219 25.273438 28.425781 C 24.898438 28.273438 24.675781 27.675781 24.601562 27.148438 C 24.449219 26.25 24.898438 24.074219 25.425781 23.398438 C 25.800781 23.023438 26.398438 22.800781 26.773438 22.875 C 27.074219 22.949219 27.375 23.175781 27.601562 23.625 C 28.199219 24.675781 29.324219 28.574219 28.949219 29.699219 C 28.800781 30.226562 28.199219 30.675781 27.824219 30.675781 C 27.375 30.675781 26.625 30.148438 26.398438 29.699219 C 26.25 29.324219 26.25 28.726562 26.476562 28.351562 C 26.699219 27.976562 27.375 27.375 27.824219 27.449219 C 28.273438 27.523438 28.800781 28.125 29.101562 28.800781 C 29.699219 30.226562 30.148438 35.023438 29.550781 36.226562 C 29.25 36.824219 28.574219 37.199219 28.199219 37.125 C 27.75 37.050781 27.300781 36.523438 27.074219 35.925781 C 26.625 34.875 26.550781 31.800781 27.074219 30.824219 C 27.375 30.226562 28.125 29.773438 28.5 29.851562 C 28.875 29.925781 29.25 30.449219 29.398438 31.125 C 29.773438 32.773438 28.5 39.226562 27.523438 40.273438 C 27.148438 40.648438 26.699219 40.648438 26.324219 40.574219 C 25.949219 40.5 25.5 40.199219 25.351562 39.75 C 25.050781 38.925781 25.351562 36.523438 25.800781 35.625 C 26.023438 35.101562 26.476562 34.648438 26.851562 34.574219 C 27.226562 34.5 27.976562 34.800781 28.199219 35.25 C 28.5 35.925781 28.125 38.023438 27.601562 38.699219 C 27.300781 39.148438 26.625 39.449219 26.25 39.375 C 25.800781 39.300781 25.351562 38.625 25.199219 38.023438 C 24.976562 37.199219 25.199219 35.851562 25.351562 34.800781 C 25.5 33.824219 25.5 32.324219 26.023438 31.949219 C 26.476562 31.648438 27.523438 31.875 27.898438 32.324219 C 28.574219 33.074219 28.5 36.226562 28.125 37.199219 C 27.976562 37.648438 27.675781 38.023438 27.300781 38.101562 C 26.851562 38.175781 26.175781 37.949219 25.726562 37.425781 C 24.898438 36.449219 24 31.648438 24.523438 31.199219 C 24.824219 30.976562 26.25 31.574219 26.476562 32.101562 C 26.699219 32.625 26.101562 34.273438 25.574219 34.5 C 25.125 34.726562 23.925781 34.351562 23.550781 33.75 C 23.023438 32.851562 23.625 29.699219 24.148438 28.648438 C 24.449219 28.050781 24.898438 27.601562 25.351562 27.523438 C 25.875 27.449219 26.699219 27.824219 27.148438 28.351562 C 27.824219 29.175781 28.273438 31.875 28.050781 32.851562 C 27.898438 33.449219 27.523438 33.898438 27.148438 34.050781 C 26.773438 34.199219 26.25 34.050781 25.949219 33.824219 C 25.648438 33.601562 25.5 33.226562 25.5 32.699219 C 25.425781 31.800781 25.949219 29.550781 26.550781 28.949219 C 26.925781 28.574219 27.523438 28.5 27.898438 28.648438 C 28.351562 28.800781 28.875 29.699219 28.875 30.148438 C 28.875 30.601562 28.199219 31.273438 27.824219 31.351562 C 27.449219 31.425781 26.625 30.675781 26.625 30.675781 " clip-rule="nonzero"/></clipPath><clipPath id="d6ed7fcbd5"><path d="M 25.050781 20.25 L 30 20.25 L 30 28 L 25.050781 28 Z M 25.050781 20.25 " clip-rule="nonzero"/></clipPath><clipPath id="726cfedc7f"><path d="M 27 26.476562 C 28.574219 24.523438 29.550781 25.648438 29.476562 26.101562 C 29.398438 26.476562 28.351562 27.148438 27.898438 27.074219 C 27.375 26.925781 26.773438 25.726562 26.476562 24.824219 C 26.101562 23.851562 25.648438 22.050781 26.023438 21.449219 C 26.25 21.074219 27.148438 20.925781 27.523438 21.074219 C 27.898438 21.148438 28.351562 21.601562 28.351562 21.976562 C 28.351562 22.425781 27.300781 23.625 26.851562 23.550781 C 26.476562 23.550781 25.726562 22.425781 25.800781 21.976562 C 25.875 21.523438 26.925781 20.851562 27.375 21 C 28.199219 21.300781 29.699219 25.125 29.476562 26.101562 C 29.398438 26.625 28.875 27 28.5 27.074219 C 28.125 27.148438 27.449219 26.851562 27.226562 26.550781 C 27 26.25 26.925781 25.726562 27.074219 25.425781 C 27.226562 25.050781 27.824219 24.523438 28.199219 24.523438 C 28.574219 24.523438 29.175781 24.898438 29.398438 25.273438 C 29.625 25.726562 29.550781 26.773438 29.25 27.226562 C 28.949219 27.675781 27.976562 28.050781 27.601562 27.898438 C 27.226562 27.75 27 26.476562 27 26.476562 " clip-rule="nonzero"/></clipPath><clipPath id="3ad853645e"><path d="M 26.25 20.175781 L 29 20.175781 L 29 24.675781 L 26.25 24.675781 Z M 26.25 20.175781 " clip-rule="nonzero"/></clipPath><clipPath id="b3b9d5d197"><path d="M 26.25 23.25 C 27.148438 21 28.199219 21.074219 28.425781 21.375 C 28.648438 21.675781 28.199219 23.101562 27.824219 23.175781 C 27.449219 23.25 26.324219 22.351562 26.324219 21.976562 C 26.324219 21.601562 26.925781 21 27.300781 20.925781 C 27.601562 20.851562 28.125 21 28.351562 21.300781 C 28.648438 21.824219 28.5 23.851562 28.050781 24.226562 C 27.75 24.523438 27 24.449219 26.699219 24.226562 C 26.398438 24.074219 26.25 23.25 26.25 23.25 " clip-rule="nonzero"/></clipPath></defs><g clip-path="url(#cc10f48470)"><path fill="#ca6659" d="M 59.722656 12.558594 C 56.820312 12.558594 55.542969 15.070312 54.414062 17.289062 C 53.058594 19.953125 51.777344 22.46875 48.027344 22.46875 C 44.265625 22.46875 43.894531 19.066406 43.859375 18.394531 C 43.859375 18.367188 43.855469 18.339844 43.851562 18.3125 C 43.574219 15.296875 41.433594 9.59375 35.347656 9.59375 C 32.160156 9.59375 29.671875 10.542969 27.949219 12.417969 C 26.292969 14.21875 25.78125 16.449219 25.636719 17.917969 C 18.722656 18.683594 13.324219 24.566406 13.324219 31.691406 L 13.324219 51.207031 C 13.324219 58.851562 19.53125 65.066406 27.160156 65.066406 C 34.792969 65.066406 41 58.851562 41 51.207031 L 41 31.691406 C 41 24.613281 35.667969 18.757812 28.816406 17.933594 C 28.949219 16.957031 29.3125 15.613281 30.277344 14.5625 C 31.375 13.367188 33.078125 12.761719 35.34375 12.761719 C 39.941406 12.761719 40.640625 18.082031 40.699219 18.578125 C 40.820312 21.050781 42.492188 25.640625 48.027344 25.640625 C 53.71875 25.640625 55.75 21.644531 57.234375 18.726562 C 58.296875 16.640625 58.851562 15.730469 59.722656 15.730469 C 60.59375 15.730469 61.304688 15.019531 61.304688 14.144531 C 61.304688 13.269531 60.597656 12.558594 59.722656 12.558594 Z M 37.835938 31.691406 L 37.835938 51.207031 C 37.835938 57.105469 33.046875 61.898438 27.164062 61.898438 C 21.277344 61.898438 16.488281 57.105469 16.488281 51.207031 L 16.488281 31.691406 C 16.488281 25.976562 20.996094 21.308594 26.632812 21.027344 L 26.632812 24.90625 C 26.019531 25.125 25.578125 25.707031 25.578125 26.394531 L 25.578125 33.5 C 25.578125 34.191406 26.019531 34.769531 26.632812 34.988281 L 26.632812 38.425781 C 26.632812 38.714844 26.871094 38.953125 27.160156 38.953125 C 27.453125 38.953125 27.6875 38.714844 27.6875 38.425781 L 27.6875 34.988281 C 28.300781 34.769531 28.742188 34.191406 28.742188 33.5 L 28.742188 26.394531 C 28.742188 25.707031 28.300781 25.125 27.6875 24.90625 L 27.6875 21.027344 C 33.328125 21.308594 37.835938 25.976562 37.835938 31.691406 Z M 37.835938 31.691406 " fill-opacity="1" fill-rule="nonzero"/></g><g clip-path="url(#1fcd073234)"><g clip-path="url(#11f73adfb7)"><path fill="#ffffff" d="M 20.550781 19.875 L 32.550781 19.875 L 32.550781 43.875 L 20.550781 43.875 Z M 20.550781 19.875 " fill-opacity="1" fill-rule="nonzero"/></g></g><g clip-path="url(#d6ed7fcbd5)"><g clip-path="url(#726cfedc7f)"><path fill="#ffffff" d="M 22.800781 18 L 32.550781 18 L 32.550781 30.75 L 22.800781 30.75 Z M 22.800781 18 " fill-opacity="1" fill-rule="nonzero"/></g></g><g clip-path="url(#3ad853645e)"><g clip-path="url(#b3b9d5d197)"><path fill="#ffffff" d="M 23.25 17.925781 L 31.5 17.925781 L 31.5 26.925781 L 23.25 26.925781 Z M 23.25 17.925781 " fill-opacity="1" fill-rule="nonzero"/></g></g></svg>