<svg xmlns="http://www.w3.org/2000/svg" xmlns:xlink="http://www.w3.org/1999/xlink" width="100" zoomAndPan="magnify" viewBox="0 0 75 74.999997" height="100" preserveAspectRatio="xMidYMid meet" version="1.0"><defs><clipPath id="9dff63b99a"><path d="M 18.910156 5.246094 L 56.410156 5.246094 L 56.410156 69.746094 L 18.910156 69.746094 Z M 18.910156 5.246094 " clip-rule="nonzero"/></clipPath></defs><g clip-path="url(#9dff63b99a)"><path fill="#ca6659" d="M 18.953125 42.589844 L 18.953125 54.730469 C 18.953125 58.742188 20.527344 62.507812 23.390625 65.347656 C 26.253906 68.183594 30.054688 69.746094 34.101562 69.746094 C 39.488281 69.746094 44.523438 66.867188 47.21875 62.238281 L 52.242188 53.621094 L 55.78125 47.53125 C 56.171875 46.875 56.367188 46.125 56.367188 45.375 C 56.367188 43.839844 55.535156 42.410156 54.195312 41.648438 C 52.109375 40.460938 49.457031 41.171875 48.257812 43.222656 L 46.855469 45.648438 L 46.855469 31.820312 C 52.304688 30.011719 56.261719 24.890625 56.261719 18.878906 C 56.261719 11.371094 50.082031 5.246094 42.492188 5.246094 C 34.90625 5.246094 28.738281 11.359375 28.738281 18.878906 C 28.738281 24.890625 32.695312 30.011719 38.160156 31.820312 L 38.160156 32.578125 C 37.535156 32.246094 36.820312 32.0625 36.089844 32.0625 C 33.917969 32.0625 32.109375 33.652344 31.796875 35.714844 C 31.160156 35.367188 30.441406 35.171875 29.6875 35.171875 C 27.515625 35.171875 25.707031 36.773438 25.394531 38.835938 C 24.769531 38.488281 24.054688 38.292969 23.285156 38.292969 C 20.890625 38.292969 18.953125 40.21875 18.953125 42.589844 Z M 46.867188 29.417969 L 46.867188 26.53125 C 49.546875 25.019531 51.371094 22.167969 51.371094 18.894531 C 51.371094 14.054688 47.398438 10.121094 42.519531 10.121094 C 37.640625 10.121094 33.671875 14.054688 33.671875 18.894531 C 33.671875 22.15625 35.480469 25.019531 38.171875 26.53125 L 38.171875 29.417969 C 33.984375 27.714844 31.027344 23.628906 31.027344 18.878906 C 31.027344 12.609375 36.183594 7.503906 42.507812 7.503906 C 48.832031 7.503906 53.984375 12.609375 53.984375 18.878906 C 53.984375 23.640625 51.03125 27.714844 46.867188 29.417969 Z M 38.160156 19.667969 L 38.160156 23.78125 C 36.792969 22.582031 35.933594 20.839844 35.933594 18.894531 C 35.933594 15.308594 38.890625 12.378906 42.507812 12.378906 C 46.125 12.378906 49.078125 15.292969 49.078125 18.894531 C 49.078125 20.839844 48.21875 22.582031 46.855469 23.78125 L 46.855469 19.667969 C 46.855469 18.519531 46.398438 17.433594 45.578125 16.621094 C 44.757812 15.808594 43.664062 15.359375 42.507812 15.359375 C 40.113281 15.359375 38.160156 17.292969 38.160156 19.667969 Z M 21.269531 54.730469 L 21.269531 42.628906 C 21.269531 41.492188 22.207031 40.578125 23.335938 40.578125 C 24.484375 40.578125 25.40625 41.492188 25.40625 42.617188 L 25.40625 46.164062 C 25.40625 46.78125 25.914062 47.285156 26.539062 47.285156 C 27.164062 47.285156 27.671875 46.78125 27.671875 46.164062 L 27.671875 39.507812 C 27.671875 38.371094 28.609375 37.457031 29.742188 37.457031 C 30.285156 37.457031 30.808594 37.664062 31.199219 38.050781 C 31.589844 38.4375 31.796875 38.953125 31.796875 39.496094 L 31.796875 45.53125 C 31.796875 46.152344 32.304688 46.652344 32.929688 46.652344 C 33.554688 46.652344 34.0625 46.152344 34.0625 45.53125 L 34.0625 36.386719 C 34.0625 35.25 34.996094 34.335938 36.128906 34.335938 C 36.675781 34.335938 37.199219 34.539062 37.585938 34.929688 C 37.976562 35.316406 38.1875 35.832031 38.1875 36.371094 L 38.1875 44.898438 C 38.1875 45.519531 38.695312 46.023438 39.320312 46.023438 C 39.941406 46.023438 40.449219 45.519531 40.449219 44.898438 L 40.449219 19.667969 C 40.449219 18.53125 41.386719 17.617188 42.519531 17.617188 C 43.066406 17.617188 43.585938 17.835938 43.976562 18.222656 C 44.355469 18.609375 44.578125 19.125 44.578125 19.667969 L 44.578125 49.867188 C 44.578125 50.382812 44.925781 50.832031 45.421875 50.960938 C 45.917969 51.089844 46.4375 50.871094 46.699219 50.433594 L 50.238281 44.332031 C 50.628906 43.675781 51.316406 43.3125 52.03125 43.3125 C 52.382812 43.3125 52.734375 43.402344 53.0625 43.582031 C 53.699219 43.957031 54.089844 44.628906 54.089844 45.363281 C 54.089844 45.726562 54 46.074219 53.816406 46.382812 L 50.277344 52.472656 L 45.253906 61.101562 C 42.949219 65.050781 38.679688 67.488281 34.101562 67.488281 C 30.664062 67.488281 27.4375 66.160156 25.003906 63.746094 C 22.570312 61.347656 21.230469 58.136719 21.230469 54.730469 Z M 21.269531 54.730469 " fill-opacity="1" fill-rule="nonzero"/></g></svg>