<svg xmlns="http://www.w3.org/2000/svg" xmlns:xlink="http://www.w3.org/1999/xlink" width="50" zoomAndPan="magnify" viewBox="0 0 37.5 37.499999" height="50" preserveAspectRatio="xMidYMid meet" version="1.0"><defs><clipPath id="18faf1c5c1"><path d="M 16.101562 0 L 21.351562 0 L 21.351562 37.007812 L 16.101562 37.007812 Z M 16.101562 0 " clip-rule="nonzero"/></clipPath></defs><g clip-path="url(#18faf1c5c1)"><path fill="#ca6659" d="M 20.820312 1.113281 C 21.109375 1.113281 21.347656 0.875 21.347656 0.582031 C 21.347656 0.289062 21.109375 0.0546875 20.820312 0.0546875 L 16.625 0.0546875 C 16.335938 0.0546875 16.101562 0.289062 16.101562 0.582031 C 16.101562 0.875 16.335938 1.113281 16.625 1.113281 L 17.324219 1.113281 L 17.324219 36.382812 L 16.625 36.382812 C 16.335938 36.382812 16.101562 36.621094 16.101562 36.914062 C 16.101562 37.207031 16.335938 37.441406 16.625 37.441406 L 20.820312 37.441406 C 21.109375 37.441406 21.347656 37.207031 21.347656 36.914062 C 21.347656 36.621094 21.109375 36.382812 20.820312 36.382812 L 20.121094 36.382812 L 20.121094 1.113281 L 20.820312 1.113281 " fill-opacity="1" fill-rule="evenodd"/></g></svg>