<svg xmlns="http://www.w3.org/2000/svg" xmlns:xlink="http://www.w3.org/1999/xlink" width="50" zoomAndPan="magnify" viewBox="0 0 37.5 37.499999" height="50" preserveAspectRatio="xMidYMid meet" version="1.0"><defs><clipPath id="1d4fa6381a"><path d="M 12.921875 0.046875 L 18.390625 0.046875 L 18.390625 37.007812 L 12.921875 37.007812 Z M 12.921875 0.046875 " clip-rule="nonzero"/></clipPath><clipPath id="108cb3e585"><path d="M 19.421875 0.046875 L 24.917969 0.046875 L 24.917969 37.007812 L 19.421875 37.007812 Z M 19.421875 0.046875 " clip-rule="nonzero"/></clipPath></defs><g clip-path="url(#1d4fa6381a)"><path fill="#ca6659" d="M 17.101562 1.105469 L 17.101562 36.394531 L 17.828125 36.394531 C 18.132812 36.394531 18.375 36.632812 18.375 36.925781 C 18.375 37.214844 18.132812 37.453125 17.828125 37.453125 L 13.46875 37.453125 C 13.167969 37.453125 12.921875 37.214844 12.921875 36.925781 C 12.921875 36.632812 13.167969 36.394531 13.46875 36.394531 L 14.195312 36.394531 L 14.195312 1.105469 L 13.46875 1.105469 C 13.167969 1.105469 12.921875 0.867188 12.921875 0.574219 C 12.921875 0.28125 13.167969 0.046875 13.46875 0.046875 L 17.828125 0.046875 C 18.132812 0.046875 18.375 0.28125 18.375 0.574219 C 18.375 0.867188 18.132812 1.105469 17.828125 1.105469 L 17.101562 1.105469 " fill-opacity="1" fill-rule="evenodd"/></g><g clip-path="url(#108cb3e585)"><path fill="#ca6659" d="M 24.375 1.105469 C 24.675781 1.105469 24.917969 0.867188 24.917969 0.574219 C 24.917969 0.28125 24.675781 0.046875 24.375 0.046875 L 20.011719 0.046875 C 19.710938 0.046875 19.464844 0.28125 19.464844 0.574219 C 19.464844 0.867188 19.710938 1.105469 20.011719 1.105469 L 20.738281 1.105469 L 20.738281 36.394531 L 20.011719 36.394531 C 19.710938 36.394531 19.464844 36.632812 19.464844 36.925781 C 19.464844 37.214844 19.710938 37.453125 20.011719 37.453125 L 24.375 37.453125 C 24.675781 37.453125 24.917969 37.214844 24.917969 36.925781 C 24.917969 36.632812 24.675781 36.394531 24.375 36.394531 L 23.648438 36.394531 L 23.648438 1.105469 L 24.375 1.105469 " fill-opacity="1" fill-rule="evenodd"/></g></svg>