<svg xmlns="http://www.w3.org/2000/svg" xmlns:xlink="http://www.w3.org/1999/xlink" width="50" zoomAndPan="magnify" viewBox="0 0 37.5 37.499999" height="50" preserveAspectRatio="xMidYMid meet" version="1.0"><defs><clipPath id="4599d201a7"><path d="M 9.726562 0 L 15.03125 0 L 15.03125 37.007812 L 9.726562 37.007812 Z M 9.726562 0 " clip-rule="nonzero"/></clipPath><clipPath id="6983a92838"><path d="M 16.03125 0 L 21.414062 0 L 21.414062 37.007812 L 16.03125 37.007812 Z M 16.03125 0 " clip-rule="nonzero"/></clipPath><clipPath id="d94e024a27"><path d="M 22.414062 0 L 27.710938 0 L 27.710938 37.007812 L 22.414062 37.007812 Z M 22.414062 0 " clip-rule="nonzero"/></clipPath></defs><g clip-path="url(#4599d201a7)"><path fill="#ca6659" d="M 13.78125 1.0625 L 13.78125 36.4375 L 14.488281 36.4375 C 14.78125 36.4375 15.015625 36.675781 15.015625 36.96875 C 15.015625 37.261719 14.78125 37.5 14.488281 37.5 L 10.257812 37.5 C 9.964844 37.5 9.726562 37.261719 9.726562 36.96875 C 9.726562 36.675781 9.964844 36.4375 10.257812 36.4375 L 10.960938 36.4375 L 10.960938 1.0625 L 10.257812 1.0625 C 9.964844 1.0625 9.726562 0.824219 9.726562 0.53125 C 9.726562 0.238281 9.964844 0 10.257812 0 L 14.488281 0 C 14.78125 0 15.015625 0.238281 15.015625 0.53125 C 15.015625 0.824219 14.78125 1.0625 14.488281 1.0625 L 13.78125 1.0625 " fill-opacity="1" fill-rule="evenodd"/></g><g clip-path="url(#6983a92838)"><path fill="#ca6659" d="M 20.835938 1.0625 C 21.128906 1.0625 21.363281 0.824219 21.363281 0.53125 C 21.363281 0.238281 21.128906 0 20.835938 0 L 16.605469 0 C 16.3125 0 16.074219 0.238281 16.074219 0.53125 C 16.074219 0.824219 16.3125 1.0625 16.605469 1.0625 L 17.308594 1.0625 L 17.308594 36.4375 L 16.605469 36.4375 C 16.3125 36.4375 16.074219 36.675781 16.074219 36.96875 C 16.074219 37.261719 16.3125 37.5 16.605469 37.5 L 20.835938 37.5 C 21.128906 37.5 21.363281 37.261719 21.363281 36.96875 C 21.363281 36.675781 21.128906 36.4375 20.835938 36.4375 L 20.128906 36.4375 L 20.128906 1.0625 L 20.835938 1.0625 " fill-opacity="1" fill-rule="evenodd"/></g><g clip-path="url(#d94e024a27)"><path fill="#ca6659" d="M 27.183594 1.0625 C 27.476562 1.0625 27.710938 0.824219 27.710938 0.53125 C 27.710938 0.238281 27.476562 0 27.183594 0 L 22.953125 0 C 22.660156 0 22.421875 0.238281 22.421875 0.53125 C 22.421875 0.824219 22.660156 1.0625 22.953125 1.0625 L 23.65625 1.0625 L 23.65625 36.4375 L 22.953125 36.4375 C 22.660156 36.4375 22.421875 36.675781 22.421875 36.96875 C 22.421875 37.261719 22.660156 37.5 22.953125 37.5 L 27.183594 37.5 C 27.476562 37.5 27.710938 37.261719 27.710938 36.96875 C 27.710938 36.675781 27.476562 36.4375 27.183594 36.4375 L 26.476562 36.4375 L 26.476562 1.0625 L 27.183594 1.0625 " fill-opacity="1" fill-rule="evenodd"/></g></svg>