<svg xmlns="http://www.w3.org/2000/svg" xmlns:xlink="http://www.w3.org/1999/xlink" width="50" zoomAndPan="magnify" viewBox="0 0 37.5 37.499999" height="50" preserveAspectRatio="xMidYMid meet" version="1.0"><defs><clipPath id="504bff8ebd"><path d="M 6.417969 0 L 11.753906 0 L 11.753906 37.007812 L 6.417969 37.007812 Z M 6.417969 0 " clip-rule="nonzero"/></clipPath><clipPath id="1b2257e51a"><path d="M 12.757812 0 L 31.144531 0 L 31.144531 37.007812 L 12.757812 37.007812 Z M 12.757812 0 " clip-rule="nonzero"/></clipPath></defs><g clip-path="url(#504bff8ebd)"><path fill="#ca6659" d="M 10.496094 1.0625 L 10.496094 36.4375 L 11.207031 36.4375 C 11.5 36.4375 11.738281 36.675781 11.738281 36.96875 C 11.738281 37.261719 11.5 37.5 11.207031 37.5 L 6.949219 37.5 C 6.65625 37.5 6.417969 37.261719 6.417969 36.96875 C 6.417969 36.675781 6.65625 36.4375 6.949219 36.4375 L 7.660156 36.4375 L 7.660156 1.0625 L 6.949219 1.0625 C 6.65625 1.0625 6.417969 0.824219 6.417969 0.53125 C 6.417969 0.238281 6.65625 0 6.949219 0 L 11.207031 0 C 11.5 0 11.738281 0.238281 11.738281 0.53125 C 11.738281 0.824219 11.5 1.0625 11.207031 1.0625 L 10.496094 1.0625 " fill-opacity="1" fill-rule="evenodd"/></g><g clip-path="url(#1b2257e51a)"><path fill="#ca6659" d="M 30.613281 0 L 26.355469 0 C 26.0625 0 25.824219 0.238281 25.824219 0.53125 C 25.824219 0.824219 26.0625 1.0625 26.355469 1.0625 L 26.9375 1.0625 L 21.933594 29.34375 L 16.933594 1.0625 L 17.59375 1.0625 C 17.886719 1.0625 18.125 0.824219 18.125 0.53125 C 18.125 0.238281 17.886719 0 17.59375 0 L 13.335938 0 C 13.042969 0 12.804688 0.238281 12.804688 0.53125 C 12.804688 0.824219 13.042969 1.0625 13.335938 1.0625 L 14.050781 1.0625 L 20.308594 36.4375 L 19.898438 36.4375 C 19.753906 36.4375 19.617188 36.5 19.523438 36.59375 C 19.425781 36.691406 19.367188 36.824219 19.367188 36.96875 C 19.367188 37.261719 19.605469 37.5 19.898438 37.5 L 24.15625 37.5 C 24.304688 37.5 24.4375 37.441406 24.53125 37.34375 C 24.628906 37.25 24.6875 37.117188 24.6875 36.96875 C 24.6875 36.675781 24.449219 36.4375 24.15625 36.4375 L 23.5625 36.4375 L 29.820312 1.0625 L 30.613281 1.0625 C 30.90625 1.0625 31.144531 0.824219 31.144531 0.53125 C 31.144531 0.238281 30.90625 0 30.613281 0 " fill-opacity="1" fill-rule="evenodd"/></g></svg>