<svg xmlns="http://www.w3.org/2000/svg" xmlns:xlink="http://www.w3.org/1999/xlink" width="50" zoomAndPan="magnify" viewBox="0 0 37.5 37.499999" height="50" preserveAspectRatio="xMidYMid meet" version="1.0"><defs><clipPath id="8f229a2c9f"><path d="M 9.609375 0.0078125 L 27.609375 0.0078125 L 27.609375 37.007812 L 9.609375 37.007812 Z M 9.609375 0.0078125 " clip-rule="nonzero"/></clipPath></defs><g clip-path="url(#8f229a2c9f)"><path fill="#ca6659" d="M 27.089844 0.00390625 L 22.910156 0.00390625 C 22.621094 0.00390625 22.390625 0.242188 22.390625 0.535156 C 22.390625 0.828125 22.621094 1.066406 22.910156 1.066406 L 23.480469 1.066406 L 18.574219 29.339844 L 18.574219 29.34375 L 13.664062 1.066406 L 14.308594 1.066406 C 14.597656 1.066406 14.832031 0.828125 14.832031 0.535156 C 14.832031 0.242188 14.597656 0.00390625 14.308594 0.00390625 L 10.132812 0.00390625 C 9.84375 0.00390625 9.609375 0.242188 9.609375 0.535156 C 9.609375 0.828125 9.84375 1.066406 10.132812 1.066406 L 10.835938 1.066406 L 16.972656 36.433594 L 16.574219 36.433594 C 16.429688 36.433594 16.300781 36.492188 16.203125 36.589844 C 16.109375 36.683594 16.050781 36.816406 16.050781 36.964844 C 16.050781 37.257812 16.285156 37.492188 16.574219 37.492188 L 20.753906 37.492188 C 20.898438 37.492188 21.027344 37.433594 21.121094 37.339844 C 21.214844 37.242188 21.273438 37.109375 21.273438 36.964844 C 21.273438 36.671875 21.039062 36.433594 20.753906 36.433594 L 20.171875 36.433594 L 26.308594 1.066406 L 27.089844 1.066406 C 27.378906 1.066406 27.613281 0.828125 27.613281 0.535156 C 27.613281 0.242188 27.378906 0.00390625 27.089844 0.00390625 " fill-opacity="1" fill-rule="evenodd"/></g></svg>