<svg xmlns="http://www.w3.org/2000/svg" xmlns:xlink="http://www.w3.org/1999/xlink" width="60" zoomAndPan="magnify" viewBox="0 0 45 30.000001" height="40" preserveAspectRatio="xMidYMid meet" version="1.0"><defs><clipPath id="366a4d224b"><path d="M 0.726562 8.335938 L 44.273438 8.335938 L 44.273438 20.675781 L 0.726562 20.675781 Z M 0.726562 8.335938 " clip-rule="nonzero"/></clipPath></defs><g clip-path="url(#366a4d224b)"><path fill="#000000" d="M 30.238281 19.957031 C 30.585938 19.171875 30.878906 18.328125 31.054688 17.644531 C 31.195312 17.105469 31.386719 16.003906 31.386719 15.753906 L 31.386719 15.566406 L 0.753906 15.566406 L 0.753906 13.449219 L 31.386719 13.449219 L 31.386719 13.261719 C 31.386719 13.011719 31.195312 11.910156 31.054688 11.371094 C 30.882812 10.6875 30.585938 9.84375 30.238281 9.058594 C 30.066406 8.664062 29.929688 8.339844 29.933594 8.339844 C 30.003906 8.339844 44.230469 14.46875 44.238281 14.5 C 44.25 14.535156 30.023438 20.675781 29.933594 20.675781 C 29.929688 20.675781 30.066406 20.351562 30.238281 19.957031 Z M 30.238281 19.957031 " fill-opacity="1" fill-rule="nonzero"/></g></svg>