<svg xmlns="http://www.w3.org/2000/svg" xmlns:xlink="http://www.w3.org/1999/xlink" width="200" zoomAndPan="magnify" viewBox="0 0 150 89.999999" height="120" preserveAspectRatio="xMidYMid meet" version="1.0"><defs><clipPath id="1dc629a9a0"><path d="M 6.097656 6.164062 L 144.097656 6.164062 L 144.097656 84 L 6.097656 84 Z M 6.097656 6.164062 " clip-rule="nonzero"/></clipPath></defs><g clip-path="url(#1dc629a9a0)"><path fill="#000000" d="M 138.421875 22.699219 L 132.589844 22.699219 L 132.589844 15.089844 C 132.589844 10.199219 128.625 6.21875 123.742188 6.21875 L 14.921875 6.21875 C 10.042969 6.21875 6.074219 10.199219 6.074219 15.089844 L 6.074219 74.882812 C 6.074219 79.777344 10.042969 83.753906 14.921875 83.753906 L 123.742188 83.753906 C 128.625 83.753906 132.589844 79.777344 132.589844 74.882812 L 132.589844 67.269531 L 138.421875 67.269531 C 141.5625 67.269531 144.113281 64.710938 144.113281 61.566406 L 144.113281 28.414062 C 144.117188 25.261719 141.5625 22.699219 138.421875 22.699219 Z M 140.578125 61.5625 C 140.578125 62.753906 139.613281 63.71875 138.425781 63.71875 L 130.824219 63.71875 C 129.847656 63.71875 129.054688 64.511719 129.054688 65.492188 L 129.054688 74.878906 C 129.054688 77.816406 126.671875 80.203125 123.746094 80.203125 L 14.921875 80.203125 C 11.996094 80.203125 9.613281 77.816406 9.613281 74.878906 L 9.613281 15.089844 C 9.613281 12.152344 11.996094 9.765625 14.921875 9.765625 L 123.742188 9.765625 C 126.671875 9.765625 129.050781 12.152344 129.050781 15.089844 L 129.050781 24.472656 C 129.050781 25.453125 129.84375 26.246094 130.820312 26.246094 L 138.421875 26.246094 C 139.609375 26.246094 140.578125 27.214844 140.578125 28.410156 Z M 140.578125 61.5625 " fill-opacity="1" fill-rule="nonzero"/></g></svg>