<svg xmlns="http://www.w3.org/2000/svg" xmlns:xlink="http://www.w3.org/1999/xlink" width="50" zoomAndPan="magnify" viewBox="0 0 37.5 37.499999" height="50" preserveAspectRatio="xMidYMid meet" version="1.0"><defs><clipPath id="9b163b77bc"><path d="M 0 11.765625 L 37.007812 11.765625 L 37.007812 26 L 0 26 Z M 0 11.765625 " clip-rule="nonzero"/></clipPath></defs><g clip-path="url(#9b163b77bc)"><path fill="#ffffff" d="M 33.140625 19.519531 C 28.058594 18.113281 24.253906 19.296875 21.753906 20.800781 C 25.167969 17.257812 30.378906 16.09375 32.046875 15.804688 Z M 27.128906 11.785156 L 28.5625 15.277344 C 25.863281 16.132812 22.332031 17.796875 19.941406 20.859375 C 21.453125 15.496094 25.589844 12.671875 27.128906 11.785156 Z M 10.351562 11.785156 C 11.890625 12.671875 16.027344 15.488281 17.539062 20.871094 C 15.148438 17.804688 11.617188 16.144531 8.917969 15.289062 Z M 5.433594 15.804688 C 7.101562 16.09375 12.3125 17.257812 15.726562 20.800781 C 13.226562 19.296875 9.421875 18.113281 4.339844 19.519531 Z M 20.933594 25.996094 L 16.546875 25.996094 C 15.578125 24.722656 11.402344 20.632812 0 25.480469 L 0.984375 22.222656 C 12.359375 16.589844 17.980469 24.324219 18.214844 24.664062 C 18.222656 24.671875 18.234375 24.671875 18.242188 24.683594 C 18.253906 24.703125 18.261719 24.722656 18.28125 24.730469 C 18.292969 24.742188 18.292969 24.742188 18.292969 24.753906 C 18.3125 24.773438 18.332031 24.78125 18.359375 24.792969 C 18.378906 24.800781 18.398438 24.820312 18.417969 24.832031 C 18.4375 24.84375 18.457031 24.863281 18.488281 24.871094 C 18.496094 24.871094 18.507812 24.882812 18.507812 24.882812 C 18.546875 24.902344 18.59375 24.902344 18.644531 24.910156 C 18.671875 24.910156 18.691406 24.929688 18.722656 24.929688 C 18.730469 24.929688 18.742188 24.929688 18.75 24.929688 C 18.757812 24.929688 18.769531 24.929688 18.777344 24.929688 C 18.808594 24.929688 18.828125 24.921875 18.855469 24.910156 C 18.90625 24.902344 18.945312 24.902344 18.992188 24.882812 C 19.003906 24.882812 19.011719 24.871094 19.011719 24.871094 C 19.042969 24.863281 19.0625 24.84375 19.082031 24.832031 C 19.101562 24.820312 19.121094 24.8125 19.140625 24.792969 C 19.160156 24.773438 19.1875 24.761719 19.207031 24.753906 C 19.21875 24.742188 19.21875 24.742188 19.21875 24.730469 C 19.238281 24.710938 19.246094 24.703125 19.257812 24.683594 C 19.265625 24.671875 19.277344 24.671875 19.285156 24.664062 C 19.519531 24.324219 25.140625 16.589844 36.515625 22.222656 L 37.5 25.480469 C 26.085938 20.632812 21.902344 24.730469 20.933594 25.996094 Z M 20.933594 25.996094 " fill-opacity="1" fill-rule="nonzero"/></g></svg>