<svg xmlns="http://www.w3.org/2000/svg" xmlns:xlink="http://www.w3.org/1999/xlink" width="50" zoomAndPan="magnify" viewBox="0 0 37.5 37.499999" height="50" preserveAspectRatio="xMidYMid meet" version="1.0"><defs><clipPath id="ade62eaa5f"><path d="M 0 12.972656 L 30 12.972656 L 30 32.472656 L 0 32.472656 Z M 0 12.972656 " clip-rule="nonzero"/></clipPath></defs><g clip-path="url(#ade62eaa5f)"><path fill="#000000" d="M 10.996094 31.804688 C 10.996094 32.164062 10.703125 32.457031 10.339844 32.457031 L 10.160156 32.457031 C 7.800781 32.457031 5.878906 30.542969 5.878906 28.183594 L 5.878906 20.71875 C 5.878906 20.359375 6.171875 20.0625 6.535156 20.0625 C 6.898438 20.0625 7.191406 20.359375 7.191406 20.71875 L 7.191406 28.183594 C 7.191406 29.820312 8.523438 31.148438 10.160156 31.148438 L 10.339844 31.148438 C 10.703125 31.148438 10.996094 31.441406 10.996094 31.804688 Z M 29.632812 22.394531 L 29.632812 31.804688 C 29.632812 32.164062 29.335938 32.457031 28.976562 32.457031 L 24.59375 32.457031 C 24.230469 32.457031 23.9375 32.164062 23.9375 31.804688 C 23.9375 31.441406 24.230469 31.148438 24.59375 31.148438 L 28.320312 31.148438 L 28.320312 22.394531 C 28.320312 22.035156 28.613281 21.738281 28.976562 21.738281 C 29.335938 21.738281 29.632812 22.035156 29.632812 22.394531 Z M 18.488281 32.457031 C 18.484375 32.457031 18.484375 32.457031 18.484375 32.457031 L 12.75 32.457031 C 12.386719 32.457031 12.09375 32.164062 12.09375 31.804688 C 12.09375 31.441406 12.386719 31.148438 12.75 31.148438 L 18.480469 31.148438 C 18.480469 31.148438 18.484375 31.148438 18.484375 31.148438 C 20.789062 31.148438 22.90625 29.894531 24.015625 27.875 C 24.136719 27.660156 24.359375 27.535156 24.59375 27.535156 C 24.699219 27.535156 24.808594 27.5625 24.90625 27.617188 C 25.226562 27.789062 25.34375 28.1875 25.167969 28.503906 C 23.828125 30.941406 21.269531 32.457031 18.488281 32.457031 Z M 18.023438 19.300781 C 20.480469 19.300781 22.480469 21.296875 22.480469 23.75 C 22.480469 26.203125 20.480469 28.199219 18.023438 28.199219 C 15.5625 28.199219 13.5625 26.203125 13.5625 23.75 C 13.5625 21.296875 15.5625 19.300781 18.023438 19.300781 Z M 26.628906 12.984375 L 10.164062 12.984375 C 7.800781 12.984375 5.878906 14.902344 5.878906 17.257812 L 5.878906 17.992188 L 0.65625 17.992188 C 0.292969 17.992188 0 18.285156 0 18.648438 C 0 19.007812 0.292969 19.300781 0.65625 19.300781 L 14.363281 19.300781 C 13.074219 20.359375 12.25 21.960938 12.25 23.75 C 12.25 26.925781 14.839844 29.507812 18.023438 29.507812 C 21.203125 29.507812 23.792969 26.925781 23.792969 23.75 C 23.792969 20.574219 21.203125 17.992188 18.023438 17.992188 C 17.957031 17.992188 17.894531 17.996094 17.828125 17.996094 C 17.800781 17.992188 17.777344 17.992188 17.75 17.992188 L 7.191406 17.992188 L 7.191406 17.257812 C 7.191406 15.625 8.523438 14.296875 10.164062 14.296875 L 26.628906 14.296875 C 27.5 14.296875 28.214844 15.007812 28.214844 15.878906 C 28.214844 16.242188 28.507812 16.535156 28.871094 16.535156 C 29.234375 16.535156 29.527344 16.242188 29.527344 15.878906 C 29.527344 14.285156 28.226562 12.984375 26.628906 12.984375 " fill-opacity="1" fill-rule="nonzero"/></g><path fill="#ca6659" d="M 28.976562 18.796875 C 28.410156 18.796875 27.949219 19.253906 27.949219 19.820312 C 27.949219 20.382812 28.410156 20.84375 28.976562 20.84375 C 29.542969 20.84375 30 20.382812 30 19.820312 C 30 19.253906 29.542969 18.796875 28.976562 18.796875 Z M 21.902344 23.75 C 21.902344 25.886719 20.160156 27.621094 18.023438 27.621094 C 15.882812 27.621094 14.140625 25.886719 14.140625 23.75 C 14.140625 21.613281 15.882812 19.878906 18.023438 19.878906 C 20.160156 19.878906 21.902344 21.613281 21.902344 23.75 " fill-opacity="1" fill-rule="nonzero"/></svg>