<svg xmlns="http://www.w3.org/2000/svg" xmlns:xlink="http://www.w3.org/1999/xlink" width="50" zoomAndPan="magnify" viewBox="0 0 37.5 37.499999" height="50" preserveAspectRatio="xMidYMid meet" version="1.0"><defs><clipPath id="e5e8cc04e4"><path d="M 6 11.429688 L 37.007812 11.429688 L 37.007812 26.429688 L 6 26.429688 Z M 6 11.429688 " clip-rule="nonzero"/></clipPath></defs><g clip-path="url(#e5e8cc04e4)"><path fill="#ffffff" d="M 37.398438 16.285156 C 37.410156 16.265625 37.421875 16.246094 37.433594 16.226562 C 37.441406 16.207031 37.445312 16.191406 37.453125 16.171875 C 37.457031 16.164062 37.460938 16.15625 37.460938 16.152344 C 37.464844 16.144531 37.46875 16.140625 37.46875 16.136719 C 37.472656 16.125 37.476562 16.113281 37.476562 16.101562 C 37.484375 16.085938 37.488281 16.066406 37.492188 16.046875 C 37.496094 16.023438 37.5 15.996094 37.503906 15.96875 C 37.503906 15.964844 37.503906 15.957031 37.503906 15.953125 C 37.503906 15.941406 37.503906 15.933594 37.503906 15.921875 C 37.503906 15.914062 37.503906 15.902344 37.503906 15.890625 C 37.503906 15.882812 37.503906 15.871094 37.503906 15.859375 C 37.503906 15.851562 37.503906 15.84375 37.5 15.835938 C 37.5 15.8125 37.496094 15.789062 37.488281 15.769531 C 37.484375 15.746094 37.480469 15.726562 37.476562 15.707031 C 37.472656 15.695312 37.46875 15.683594 37.464844 15.671875 C 37.464844 15.671875 37.464844 15.671875 37.464844 15.667969 C 37.464844 15.664062 37.460938 15.660156 37.460938 15.65625 C 37.457031 15.652344 37.453125 15.648438 37.453125 15.644531 C 37.445312 15.621094 37.4375 15.601562 37.425781 15.585938 C 37.417969 15.566406 37.40625 15.546875 37.394531 15.527344 C 37.382812 15.511719 37.371094 15.492188 37.359375 15.476562 C 37.34375 15.457031 37.332031 15.441406 37.316406 15.425781 C 37.300781 15.410156 37.285156 15.394531 37.269531 15.382812 C 37.253906 15.367188 37.238281 15.355469 37.222656 15.34375 C 37.207031 15.332031 37.191406 15.320312 37.175781 15.308594 C 37.171875 15.304688 37.167969 15.304688 37.164062 15.300781 C 37.148438 15.292969 37.132812 15.285156 37.113281 15.277344 C 37.09375 15.265625 37.074219 15.257812 37.050781 15.25 C 37.03125 15.242188 37.015625 15.238281 36.992188 15.230469 C 36.984375 15.230469 36.972656 15.222656 36.960938 15.222656 C 36.957031 15.222656 36.957031 15.21875 36.953125 15.21875 C 36.945312 15.21875 36.933594 15.21875 36.925781 15.214844 C 36.917969 15.214844 36.910156 15.210938 36.902344 15.210938 L 6.78125 11.53125 C 6.484375 11.492188 6.199219 11.660156 6.074219 11.941406 C 5.949219 12.222656 6.019531 12.550781 6.246094 12.757812 L 10.054688 16.226562 L 10.054688 22.558594 C 10.054688 22.578125 10.0625 22.59375 10.0625 22.613281 C 10.066406 22.640625 10.070312 22.671875 10.074219 22.703125 C 10.085938 22.746094 10.097656 22.785156 10.113281 22.828125 C 10.121094 22.84375 10.121094 22.859375 10.128906 22.875 C 10.136719 22.886719 10.144531 22.898438 10.152344 22.910156 C 10.167969 22.9375 10.183594 22.960938 10.203125 22.988281 C 10.226562 23.015625 10.246094 23.042969 10.269531 23.066406 C 10.292969 23.085938 10.316406 23.105469 10.339844 23.121094 C 10.367188 23.144531 10.398438 23.164062 10.429688 23.179688 C 10.441406 23.1875 10.453125 23.195312 10.464844 23.203125 C 10.484375 23.210938 10.503906 23.214844 10.523438 23.222656 C 10.539062 23.226562 10.558594 23.234375 10.574219 23.238281 C 10.628906 23.253906 10.683594 23.261719 10.742188 23.261719 C 10.785156 23.261719 10.828125 23.257812 10.875 23.25 L 16.351562 22.144531 L 20.996094 26.1875 C 21.125 26.300781 21.28125 26.355469 21.441406 26.355469 C 21.566406 26.355469 21.691406 26.320312 21.800781 26.25 L 37.179688 16.507812 C 37.183594 16.507812 37.183594 16.507812 37.183594 16.503906 C 37.199219 16.496094 37.210938 16.484375 37.226562 16.472656 C 37.246094 16.460938 37.261719 16.445312 37.28125 16.429688 C 37.292969 16.417969 37.308594 16.402344 37.320312 16.386719 C 37.332031 16.375 37.34375 16.363281 37.355469 16.347656 C 37.359375 16.347656 37.359375 16.34375 37.359375 16.34375 C 37.359375 16.339844 37.363281 16.339844 37.363281 16.335938 C 37.375 16.320312 37.386719 16.304688 37.398438 16.285156 Z M 32.132812 15.207031 L 11.003906 15.207031 L 8.792969 13.195312 Z M 21.503906 24.785156 L 16.992188 20.855469 C 16.988281 20.855469 16.988281 20.855469 16.988281 20.855469 L 15.777344 19.796875 L 32.15625 17.324219 Z M 21.503906 24.785156 " fill-opacity="1" fill-rule="nonzero"/></g><path fill="#ffffff" d="M 7.769531 18.539062 L 2.296875 18.539062 C 1.917969 18.539062 1.609375 18.222656 1.609375 17.832031 C 1.609375 17.445312 1.917969 17.128906 2.296875 17.128906 L 7.769531 17.128906 C 8.148438 17.128906 8.453125 17.445312 8.453125 17.832031 C 8.453125 18.222656 8.148438 18.539062 7.769531 18.539062 Z M 7.769531 18.539062 " fill-opacity="1" fill-rule="nonzero"/><path fill="#ffffff" d="M 7.769531 23.292969 L 2.296875 23.292969 C 1.917969 23.292969 1.609375 22.976562 1.609375 22.589844 C 1.609375 22.199219 1.917969 21.886719 2.296875 21.886719 L 7.769531 21.886719 C 8.148438 21.886719 8.453125 22.199219 8.453125 22.589844 C 8.453125 22.976562 8.148438 23.292969 7.769531 23.292969 Z M 7.769531 23.292969 " fill-opacity="1" fill-rule="nonzero"/><path fill="#ffffff" d="M 6.296875 20.914062 L 0.675781 20.914062 C 0.292969 20.914062 -0.0117188 20.601562 -0.0117188 20.210938 C -0.0117188 19.824219 0.292969 19.507812 0.675781 19.507812 L 6.296875 19.507812 C 6.675781 19.507812 6.984375 19.824219 6.984375 20.210938 C 6.984375 20.601562 6.675781 20.914062 6.296875 20.914062 Z M 6.296875 20.914062 " fill-opacity="1" fill-rule="nonzero"/></svg>