<svg xmlns="http://www.w3.org/2000/svg" xmlns:xlink="http://www.w3.org/1999/xlink" width="50" zoomAndPan="magnify" viewBox="0 0 37.5 37.499999" height="50" preserveAspectRatio="xMidYMid meet" version="1.0"><defs><clipPath id="02f7f1ee0f"><path d="M 0.375 0.375 L 37.007812 0.375 L 37.007812 37.007812 L 0.375 37.007812 Z M 0.375 0.375 " clip-rule="nonzero"/></clipPath></defs><g clip-path="url(#02f7f1ee0f)"><path fill="#ffffff" d="M 18.75 0.375 C 8.617188 0.375 0.375 8.617188 0.375 18.75 C 0.375 28.882812 8.617188 37.125 18.75 37.125 C 28.882812 37.125 37.125 28.882812 37.125 18.75 C 37.125 8.617188 28.882812 0.375 18.75 0.375 Z M 18.75 35.835938 C 9.316406 35.835938 1.664062 28.183594 1.664062 18.75 C 1.664062 9.316406 9.316406 1.664062 18.75 1.664062 C 28.183594 1.664062 35.835938 9.316406 35.835938 18.75 C 35.835938 28.183594 28.183594 35.835938 18.75 35.835938 Z M 18.75 35.835938 " fill-opacity="1" fill-rule="nonzero"/></g><path fill="#ffffff" d="M 28 12.832031 L 21.78125 18.75 L 28 24.667969 C 28.167969 24.441406 28.273438 24.1875 28.320312 23.910156 L 28.320312 13.589844 C 28.273438 13.3125 28.167969 13.058594 28 12.832031 Z M 28 12.832031 " fill-opacity="1" fill-rule="nonzero"/><path fill="#ffffff" d="M 18.75 21.632812 L 16.191406 19.199219 L 9.972656 25.113281 C 10.265625 25.304688 10.589844 25.402344 10.9375 25.402344 L 26.5625 25.402344 C 26.910156 25.402344 27.234375 25.304688 27.527344 25.113281 L 21.308594 19.199219 Z M 18.75 21.632812 " fill-opacity="1" fill-rule="nonzero"/><path fill="#ffffff" d="M 9.5 12.832031 C 9.332031 13.058594 9.226562 13.3125 9.179688 13.589844 L 9.179688 23.910156 C 9.226562 24.1875 9.332031 24.441406 9.5 24.667969 L 15.71875 18.75 Z M 9.5 12.832031 " fill-opacity="1" fill-rule="nonzero"/><path fill="#ffffff" d="M 16.191406 18.300781 L 18.75 20.742188 L 27.527344 12.386719 C 27.234375 12.195312 26.910156 12.097656 26.5625 12.097656 L 10.9375 12.097656 C 10.589844 12.097656 10.265625 12.195312 9.972656 12.386719 Z M 16.191406 18.300781 " fill-opacity="1" fill-rule="nonzero"/></svg>