<svg xmlns="http://www.w3.org/2000/svg" xmlns:xlink="http://www.w3.org/1999/xlink" width="50" zoomAndPan="magnify" viewBox="0 0 37.5 37.499999" height="50" preserveAspectRatio="xMidYMid meet" version="1.0"><defs><clipPath id="cd0c6a877e"><path d="M 0 0 L 37.007812 0 L 37.007812 37.007812 L 0 37.007812 Z M 0 0 " clip-rule="nonzero"/></clipPath></defs><g clip-path="url(#cd0c6a877e)"><path fill="#ca6659" d="M 18.75 0 C 18.136719 0 17.523438 0.03125 16.914062 0.0898438 C 16.300781 0.152344 15.695312 0.242188 15.09375 0.359375 C 14.488281 0.480469 13.894531 0.628906 13.308594 0.808594 C 12.71875 0.984375 12.140625 1.191406 11.574219 1.425781 C 11.007812 1.664062 10.453125 1.925781 9.910156 2.214844 C 9.371094 2.503906 8.84375 2.820312 8.332031 3.160156 C 7.824219 3.5 7.328125 3.867188 6.855469 4.257812 C 6.378906 4.644531 5.925781 5.058594 5.492188 5.492188 C 5.058594 5.925781 4.644531 6.378906 4.257812 6.855469 C 3.867188 7.328125 3.5 7.824219 3.160156 8.332031 C 2.820312 8.84375 2.503906 9.371094 2.214844 9.910156 C 1.925781 10.453125 1.664062 11.007812 1.425781 11.574219 C 1.191406 12.140625 0.984375 12.71875 0.808594 13.308594 C 0.628906 13.894531 0.480469 14.488281 0.359375 15.09375 C 0.242188 15.695312 0.152344 16.300781 0.0898438 16.914062 C 0.03125 17.523438 0 18.136719 0 18.75 C 0 19.363281 0.03125 19.976562 0.0898438 20.585938 C 0.152344 21.199219 0.242188 21.804688 0.359375 22.40625 C 0.480469 23.011719 0.628906 23.605469 0.808594 24.191406 C 0.984375 24.78125 1.191406 25.359375 1.425781 25.925781 C 1.664062 26.492188 1.925781 27.046875 2.214844 27.589844 C 2.503906 28.128906 2.820312 28.65625 3.160156 29.167969 C 3.5 29.675781 3.867188 30.171875 4.257812 30.644531 C 4.644531 31.121094 5.058594 31.574219 5.492188 32.007812 C 5.925781 32.441406 6.378906 32.855469 6.855469 33.242188 C 7.328125 33.632812 7.824219 34 8.332031 34.339844 C 8.84375 34.679688 9.371094 34.996094 9.910156 35.285156 C 10.453125 35.574219 11.007812 35.835938 11.574219 36.074219 C 12.140625 36.308594 12.71875 36.515625 13.308594 36.691406 C 13.894531 36.871094 14.488281 37.019531 15.09375 37.140625 C 15.695312 37.257812 16.300781 37.347656 16.914062 37.410156 C 17.523438 37.46875 18.136719 37.5 18.75 37.5 C 19.363281 37.5 19.976562 37.46875 20.585938 37.410156 C 21.199219 37.347656 21.804688 37.257812 22.40625 37.140625 C 23.011719 37.019531 23.605469 36.871094 24.191406 36.691406 C 24.78125 36.515625 25.359375 36.308594 25.925781 36.074219 C 26.492188 35.835938 27.046875 35.574219 27.589844 35.285156 C 28.128906 34.996094 28.65625 34.679688 29.167969 34.339844 C 29.675781 34 30.171875 33.632812 30.644531 33.242188 C 31.121094 32.855469 31.574219 32.441406 32.007812 32.007812 C 32.441406 31.574219 32.855469 31.121094 33.242188 30.644531 C 33.632812 30.171875 34 29.675781 34.339844 29.167969 C 34.679688 28.65625 34.996094 28.128906 35.285156 27.589844 C 35.574219 27.046875 35.835938 26.492188 36.074219 25.925781 C 36.308594 25.359375 36.515625 24.78125 36.691406 24.191406 C 36.871094 23.605469 37.019531 23.011719 37.140625 22.40625 C 37.257812 21.804688 37.347656 21.199219 37.410156 20.585938 C 37.46875 19.976562 37.5 19.363281 37.5 18.75 C 37.5 18.136719 37.46875 17.523438 37.410156 16.914062 C 37.347656 16.300781 37.257812 15.695312 37.136719 15.09375 C 37.019531 14.492188 36.867188 13.894531 36.691406 13.308594 C 36.511719 12.71875 36.304688 12.144531 36.070312 11.574219 C 35.835938 11.007812 35.574219 10.453125 35.285156 9.914062 C 34.992188 9.371094 34.679688 8.84375 34.335938 8.335938 C 33.996094 7.824219 33.628906 7.332031 33.242188 6.859375 C 32.851562 6.382812 32.441406 5.929688 32.003906 5.496094 C 31.570312 5.058594 31.117188 4.648438 30.640625 4.257812 C 30.167969 3.871094 29.675781 3.503906 29.164062 3.164062 C 28.65625 2.820312 28.128906 2.507812 27.585938 2.214844 C 27.046875 1.925781 26.492188 1.664062 25.925781 1.429688 C 25.355469 1.195312 24.78125 0.988281 24.191406 0.808594 C 23.605469 0.632812 23.007812 0.480469 22.40625 0.363281 C 21.804688 0.242188 21.199219 0.152344 20.585938 0.0898438 C 19.976562 0.03125 19.363281 0 18.75 0 Z M 18.75 36.207031 C 18.179688 36.207031 17.609375 36.179688 17.039062 36.121094 C 16.46875 36.066406 15.90625 35.984375 15.34375 35.871094 C 14.785156 35.761719 14.230469 35.621094 13.683594 35.457031 C 13.136719 35.289062 12.597656 35.097656 12.070312 34.878906 C 11.542969 34.660156 11.023438 34.414062 10.519531 34.144531 C 10.015625 33.875 9.527344 33.582031 9.050781 33.265625 C 8.574219 32.945312 8.117188 32.605469 7.675781 32.246094 C 7.234375 31.882812 6.808594 31.5 6.40625 31.09375 C 6 30.691406 5.617188 30.265625 5.253906 29.824219 C 4.894531 29.382812 4.554688 28.925781 4.234375 28.449219 C 3.917969 27.972656 3.625 27.484375 3.355469 26.980469 C 3.085938 26.476562 2.839844 25.957031 2.621094 25.429688 C 2.402344 24.902344 2.210938 24.363281 2.042969 23.816406 C 1.878906 23.269531 1.738281 22.714844 1.628906 22.15625 C 1.515625 21.59375 1.433594 21.03125 1.378906 20.460938 C 1.320312 19.890625 1.292969 19.320312 1.292969 18.75 C 1.292969 18.179688 1.320312 17.609375 1.378906 17.039062 C 1.433594 16.46875 1.515625 15.90625 1.628906 15.34375 C 1.738281 14.785156 1.878906 14.230469 2.042969 13.683594 C 2.210938 13.136719 2.402344 12.597656 2.621094 12.070312 C 2.839844 11.542969 3.085938 11.023438 3.355469 10.519531 C 3.625 10.015625 3.917969 9.527344 4.234375 9.050781 C 4.554688 8.574219 4.894531 8.117188 5.253906 7.675781 C 5.617188 7.234375 6 6.808594 6.40625 6.40625 C 6.808594 6 7.234375 5.617188 7.675781 5.253906 C 8.117188 4.894531 8.574219 4.554688 9.050781 4.234375 C 9.527344 3.917969 10.015625 3.625 10.519531 3.355469 C 11.023438 3.085938 11.542969 2.839844 12.070312 2.621094 C 12.597656 2.402344 13.136719 2.210938 13.683594 2.042969 C 14.230469 1.878906 14.785156 1.738281 15.34375 1.628906 C 15.90625 1.515625 16.46875 1.433594 17.039062 1.378906 C 17.609375 1.320312 18.179688 1.292969 18.75 1.292969 C 19.320312 1.292969 19.890625 1.320312 20.460938 1.378906 C 21.03125 1.433594 21.59375 1.515625 22.15625 1.628906 C 22.714844 1.738281 23.269531 1.878906 23.816406 2.042969 C 24.363281 2.210938 24.902344 2.402344 25.429688 2.621094 C 25.957031 2.839844 26.476562 3.085938 26.980469 3.355469 C 27.484375 3.625 27.972656 3.917969 28.449219 4.234375 C 28.925781 4.554688 29.382812 4.894531 29.824219 5.253906 C 30.265625 5.617188 30.691406 6 31.09375 6.40625 C 31.5 6.808594 31.882812 7.234375 32.246094 7.675781 C 32.605469 8.117188 32.945312 8.574219 33.265625 9.050781 C 33.582031 9.527344 33.875 10.015625 34.144531 10.519531 C 34.414062 11.023438 34.660156 11.542969 34.878906 12.070312 C 35.097656 12.597656 35.289062 13.136719 35.457031 13.683594 C 35.621094 14.230469 35.761719 14.785156 35.871094 15.34375 C 35.984375 15.90625 36.066406 16.46875 36.121094 17.039062 C 36.179688 17.609375 36.207031 18.179688 36.207031 18.75 C 36.207031 19.320312 36.179688 19.890625 36.121094 20.460938 C 36.066406 21.03125 35.980469 21.59375 35.871094 22.15625 C 35.757812 22.714844 35.621094 23.269531 35.453125 23.816406 C 35.289062 24.363281 35.09375 24.902344 34.875 25.429688 C 34.65625 25.957031 34.414062 26.472656 34.144531 26.976562 C 33.875 27.480469 33.582031 27.972656 33.261719 28.445312 C 32.945312 28.921875 32.605469 29.378906 32.242188 29.824219 C 31.878906 30.265625 31.496094 30.6875 31.089844 31.089844 C 30.6875 31.496094 30.265625 31.878906 29.824219 32.242188 C 29.378906 32.605469 28.921875 32.945312 28.445312 33.261719 C 27.972656 33.582031 27.480469 33.875 26.976562 34.144531 C 26.472656 34.414062 25.957031 34.65625 25.429688 34.875 C 24.902344 35.09375 24.363281 35.289062 23.816406 35.453125 C 23.269531 35.621094 22.714844 35.757812 22.15625 35.871094 C 21.59375 35.980469 21.03125 36.066406 20.460938 36.121094 C 19.890625 36.179688 19.320312 36.207031 18.75 36.207031 Z M 18.75 36.207031 " fill-opacity="1" fill-rule="evenodd"/></g><path fill="#ca6659" d="M 25.140625 14.945312 C 25.105469 14.480469 25.023438 14.027344 24.898438 13.582031 C 24.773438 13.132812 24.609375 12.703125 24.402344 12.285156 C 24.195312 11.871094 23.949219 11.480469 23.667969 11.113281 C 23.382812 10.746094 23.070312 10.40625 22.722656 10.097656 C 22.375 9.792969 22 9.519531 21.601562 9.285156 C 21.199219 9.050781 20.78125 8.855469 20.34375 8.699219 C 19.90625 8.542969 19.460938 8.433594 19 8.363281 C 18.542969 8.292969 18.082031 8.269531 17.617188 8.289062 C 17.152344 8.308594 16.695312 8.371094 16.246094 8.480469 C 15.792969 8.585938 15.355469 8.738281 14.933594 8.929688 C 14.511719 9.121094 14.109375 9.351562 13.730469 9.617188 C 13.355469 9.886719 13.003906 10.1875 12.683594 10.523438 C 12.363281 10.859375 12.078125 11.222656 11.828125 11.613281 C 11.578125 12.003906 11.367188 12.414062 11.195312 12.847656 C 11.023438 13.277344 10.894531 13.722656 10.808594 14.175781 C 10.722656 14.632812 10.679688 15.09375 10.683594 15.558594 C 10.683594 15.953125 10.714844 16.34375 10.78125 16.734375 C 10.289062 16.875 9.835938 17.09375 9.414062 17.382812 C 8.992188 17.671875 8.628906 18.019531 8.324219 18.429688 C 8.015625 18.839844 7.78125 19.285156 7.621094 19.769531 C 7.460938 20.253906 7.382812 20.75 7.382812 21.261719 C 7.386719 21.773438 7.46875 22.269531 7.632812 22.753906 C 7.796875 23.238281 8.035156 23.683594 8.34375 24.089844 C 8.652344 24.496094 9.019531 24.84375 9.441406 25.128906 C 9.863281 25.417969 10.320312 25.628906 10.8125 25.765625 C 10.984375 25.816406 11.148438 25.796875 11.304688 25.710938 C 11.460938 25.625 11.5625 25.496094 11.613281 25.324219 C 11.660156 25.152344 11.644531 24.988281 11.558594 24.832031 C 11.472656 24.675781 11.34375 24.574219 11.171875 24.523438 C 10.792969 24.417969 10.441406 24.253906 10.121094 24.027344 C 9.800781 23.800781 9.527344 23.527344 9.300781 23.207031 C 9.074219 22.886719 8.90625 22.535156 8.800781 22.15625 C 8.695312 21.78125 8.65625 21.394531 8.683594 21.003906 C 8.714844 20.609375 8.804688 20.234375 8.964844 19.875 C 9.121094 19.515625 9.335938 19.191406 9.605469 18.90625 C 9.875 18.621094 10.183594 18.390625 10.53125 18.210938 C 10.882812 18.03125 11.253906 17.917969 11.640625 17.867188 C 11.832031 17.839844 11.984375 17.742188 12.089844 17.582031 C 12.195312 17.421875 12.222656 17.246094 12.171875 17.058594 C 12.039062 16.566406 11.976562 16.066406 11.976562 15.558594 C 11.976562 15.167969 12.011719 14.78125 12.089844 14.398438 C 12.164062 14.015625 12.277344 13.640625 12.429688 13.28125 C 12.578125 12.921875 12.761719 12.578125 12.976562 12.253906 C 13.195312 11.929688 13.441406 11.628906 13.71875 11.351562 C 13.992188 11.074219 14.292969 10.828125 14.617188 10.613281 C 14.945312 10.394531 15.285156 10.210938 15.648438 10.0625 C 16.007812 9.914062 16.378906 9.800781 16.761719 9.722656 C 17.144531 9.648438 17.53125 9.609375 17.921875 9.609375 C 18.3125 9.609375 18.699219 9.648438 19.085938 9.722656 C 19.46875 9.800781 19.839844 9.914062 20.199219 10.0625 C 20.5625 10.210938 20.902344 10.394531 21.226562 10.613281 C 21.554688 10.828125 21.855469 11.074219 22.128906 11.351562 C 22.40625 11.628906 22.652344 11.929688 22.871094 12.253906 C 23.085938 12.578125 23.269531 12.921875 23.417969 13.28125 C 23.570312 13.640625 23.679688 14.015625 23.757812 14.398438 C 23.832031 14.78125 23.871094 15.167969 23.871094 15.558594 C 23.871094 15.734375 23.933594 15.886719 24.0625 16.015625 C 24.1875 16.140625 24.339844 16.203125 24.519531 16.203125 C 25.007812 16.191406 25.488281 16.265625 25.953125 16.421875 C 26.417969 16.578125 26.84375 16.808594 27.230469 17.113281 C 27.613281 17.417969 27.9375 17.777344 28.195312 18.195312 C 28.453125 18.613281 28.636719 19.0625 28.738281 19.539062 C 28.839844 20.019531 28.859375 20.503906 28.792969 20.992188 C 28.726562 21.476562 28.578125 21.9375 28.351562 22.375 C 28.125 22.808594 27.832031 23.191406 27.46875 23.523438 C 27.109375 23.859375 26.703125 24.121094 26.25 24.308594 C 26.085938 24.382812 25.972656 24.5 25.90625 24.667969 C 25.839844 24.832031 25.84375 25 25.914062 25.164062 C 25.988281 25.324219 26.105469 25.441406 26.273438 25.507812 C 26.4375 25.570312 26.601562 25.566406 26.765625 25.496094 C 27.332031 25.257812 27.839844 24.933594 28.292969 24.523438 C 28.75 24.113281 29.125 23.640625 29.425781 23.105469 C 29.722656 22.574219 29.925781 22.003906 30.03125 21.402344 C 30.140625 20.800781 30.148438 20.195312 30.054688 19.589844 C 29.960938 18.984375 29.773438 18.414062 29.488281 17.871094 C 29.203125 17.328125 28.839844 16.847656 28.394531 16.425781 C 27.949219 16.007812 27.449219 15.667969 26.890625 15.417969 C 26.335938 15.164062 25.753906 15.007812 25.144531 14.949219 Z M 25.140625 14.945312 " fill-opacity="1" fill-rule="evenodd"/><path fill="#ca6659" d="M 14.230469 15 C 14.347656 14.570312 14.535156 14.171875 14.785156 13.804688 C 15.035156 13.433594 15.335938 13.117188 15.691406 12.847656 C 16.046875 12.578125 16.4375 12.375 16.859375 12.234375 C 17.28125 12.09375 17.714844 12.023438 18.160156 12.027344 C 18.339844 12.027344 18.492188 11.960938 18.617188 11.835938 C 18.746094 11.710938 18.808594 11.558594 18.808594 11.378906 C 18.808594 11.199219 18.746094 11.046875 18.617188 10.921875 C 18.492188 10.796875 18.339844 10.734375 18.160156 10.734375 C 17.574219 10.730469 17 10.824219 16.445312 11.007812 C 15.886719 11.195312 15.375 11.464844 14.90625 11.820312 C 14.4375 12.175781 14.039062 12.597656 13.710938 13.085938 C 13.378906 13.570312 13.136719 14.097656 12.980469 14.664062 C 12.933594 14.835938 12.957031 15 13.046875 15.15625 C 13.136719 15.308594 13.265625 15.410156 13.4375 15.457031 C 13.609375 15.503906 13.773438 15.480469 13.929688 15.390625 C 14.082031 15.300781 14.183594 15.171875 14.230469 15 Z M 14.230469 15 " fill-opacity="1" fill-rule="evenodd"/><path fill="#ca6659" d="M 15.746094 26.164062 L 15.386719 26.164062 L 15.386719 22.800781 C 15.386719 22.660156 15.34375 22.53125 15.261719 22.417969 C 15.175781 22.304688 15.066406 22.226562 14.929688 22.183594 C 14.796875 22.144531 14.660156 22.144531 14.527344 22.191406 C 14.390625 22.242188 14.285156 22.324219 14.207031 22.441406 L 11.53125 26.449219 C 11.390625 26.664062 11.378906 26.886719 11.5 27.113281 C 11.621094 27.339844 11.8125 27.457031 12.070312 27.457031 L 14.09375 27.457031 L 14.09375 28.144531 C 14.09375 28.320312 14.15625 28.472656 14.285156 28.601562 C 14.410156 28.726562 14.5625 28.789062 14.742188 28.789062 C 14.917969 28.789062 15.074219 28.726562 15.199219 28.601562 C 15.324219 28.472656 15.386719 28.320312 15.386719 28.144531 L 15.386719 27.457031 L 15.742188 27.457031 C 15.921875 27.457031 16.074219 27.390625 16.199219 27.265625 C 16.324219 27.140625 16.390625 26.988281 16.390625 26.808594 C 16.390625 26.628906 16.324219 26.476562 16.199219 26.351562 C 16.074219 26.226562 15.921875 26.160156 15.742188 26.160156 Z M 14.097656 26.164062 L 13.28125 26.164062 L 14.097656 24.941406 Z M 14.097656 26.164062 " fill-opacity="1" fill-rule="evenodd"/><path fill="#ca6659" d="M 25.425781 26.164062 L 25.070312 26.164062 L 25.070312 22.800781 C 25.070312 22.660156 25.03125 22.53125 24.945312 22.417969 C 24.859375 22.304688 24.75 22.226562 24.613281 22.183594 C 24.480469 22.144531 24.34375 22.144531 24.210938 22.191406 C 24.078125 22.242188 23.96875 22.324219 23.890625 22.441406 L 21.21875 26.449219 C 21.074219 26.664062 21.0625 26.886719 21.183594 27.113281 C 21.304688 27.339844 21.496094 27.457031 21.753906 27.457031 L 23.777344 27.457031 L 23.777344 28.144531 C 23.777344 28.320312 23.84375 28.472656 23.96875 28.601562 C 24.09375 28.726562 24.246094 28.789062 24.425781 28.789062 C 24.605469 28.789062 24.757812 28.726562 24.882812 28.601562 C 25.007812 28.472656 25.070312 28.320312 25.070312 28.144531 L 25.070312 27.457031 L 25.425781 27.457031 C 25.605469 27.457031 25.757812 27.390625 25.882812 27.265625 C 26.007812 27.140625 26.074219 26.988281 26.074219 26.808594 C 26.074219 26.628906 26.007812 26.476562 25.882812 26.351562 C 25.757812 26.226562 25.605469 26.160156 25.425781 26.160156 Z M 23.777344 26.164062 L 22.964844 26.164062 L 23.777344 24.941406 Z M 23.777344 26.164062 " fill-opacity="1" fill-rule="evenodd"/><path fill="#ca6659" d="M 19.417969 22.160156 L 18.082031 22.160156 C 17.910156 22.160156 17.742188 22.191406 17.578125 22.257812 C 17.417969 22.324219 17.277344 22.421875 17.152344 22.542969 C 17.03125 22.667969 16.933594 22.808594 16.867188 22.96875 C 16.800781 23.128906 16.769531 23.296875 16.769531 23.472656 L 16.769531 27.480469 C 16.769531 27.65625 16.800781 27.824219 16.867188 27.984375 C 16.933594 28.144531 17.03125 28.285156 17.152344 28.410156 C 17.277344 28.535156 17.417969 28.628906 17.578125 28.695312 C 17.742188 28.761719 17.910156 28.792969 18.082031 28.792969 L 19.417969 28.792969 C 19.589844 28.792969 19.757812 28.761719 19.921875 28.695312 C 20.082031 28.628906 20.222656 28.535156 20.347656 28.410156 C 20.46875 28.285156 20.566406 28.144531 20.632812 27.984375 C 20.699219 27.824219 20.730469 27.65625 20.730469 27.480469 L 20.730469 23.472656 C 20.730469 23.296875 20.699219 23.128906 20.632812 22.96875 C 20.566406 22.808594 20.46875 22.667969 20.347656 22.542969 C 20.222656 22.421875 20.082031 22.324219 19.921875 22.257812 C 19.757812 22.191406 19.589844 22.160156 19.417969 22.160156 Z M 19.4375 27.476562 C 19.4375 27.492188 19.429688 27.5 19.417969 27.5 L 18.082031 27.5 C 18.070312 27.5 18.0625 27.492188 18.0625 27.476562 L 18.0625 23.46875 C 18.0625 23.457031 18.070312 23.449219 18.082031 23.449219 L 19.417969 23.449219 C 19.429688 23.449219 19.4375 23.457031 19.4375 23.46875 Z M 19.4375 27.476562 " fill-opacity="1" fill-rule="evenodd"/></svg>