<svg xmlns="http://www.w3.org/2000/svg" xmlns:xlink="http://www.w3.org/1999/xlink" width="50" zoomAndPan="magnify" viewBox="0 0 37.5 37.499999" height="50" preserveAspectRatio="xMidYMid meet" version="1.0"><defs><clipPath id="a01f3eb5b0"><path d="M 0 2.460938 L 37.007812 2.460938 L 37.007812 34.710938 L 0 34.710938 Z M 0 2.460938 " clip-rule="nonzero"/></clipPath></defs><g clip-path="url(#a01f3eb5b0)"><path fill="#ffffff" d="M 0.832031 2.460938 C 0.382812 2.460938 0.0195312 2.820312 0.0195312 3.265625 L 0.0195312 25.84375 C 0.0195312 26.289062 0.382812 26.648438 0.832031 26.648438 L 28.523438 26.648438 C 28.972656 26.648438 29.335938 26.289062 29.335938 25.84375 L 29.335938 3.265625 C 29.335938 2.820312 28.972656 2.460938 28.523438 2.460938 Z M 1.648438 4.074219 L 27.707031 4.074219 L 27.707031 17.445312 L 23.398438 13.179688 C 23.089844 12.875 22.605469 12.871094 22.285156 13.152344 L 16.222656 19.15625 C 16.0625 19.3125 15.851562 19.390625 15.644531 19.390625 C 15.4375 19.390625 15.226562 19.3125 15.070312 19.15625 C 14.75 18.839844 14.75 18.332031 15.070312 18.015625 L 17.679688 15.433594 L 10.390625 7.558594 C 10.085938 7.234375 9.574219 7.207031 9.242188 7.507812 L 1.648438 14.34375 Z M 22.820312 6.492188 C 22.605469 6.492188 22.398438 6.53125 22.199219 6.613281 C 22 6.695312 21.824219 6.8125 21.671875 6.964844 C 21.519531 7.117188 21.398438 7.289062 21.316406 7.488281 C 21.234375 7.683594 21.191406 7.890625 21.191406 8.105469 C 21.191406 8.320312 21.234375 8.523438 21.316406 8.722656 C 21.398438 8.917969 21.519531 9.09375 21.671875 9.246094 C 21.824219 9.394531 22 9.511719 22.199219 9.59375 C 22.398438 9.675781 22.605469 9.71875 22.820312 9.71875 C 23.039062 9.71875 23.246094 9.675781 23.445312 9.59375 C 23.644531 9.511719 23.820312 9.394531 23.972656 9.246094 C 24.125 9.09375 24.246094 8.917969 24.328125 8.722656 C 24.410156 8.523438 24.449219 8.320312 24.449219 8.105469 C 24.449219 7.890625 24.410156 7.683594 24.328125 7.488281 C 24.246094 7.289062 24.125 7.117188 23.972656 6.964844 C 23.820312 6.8125 23.644531 6.695312 23.445312 6.613281 C 23.246094 6.53125 23.039062 6.492188 22.820312 6.492188 Z M 30.964844 6.492188 L 30.964844 8.105469 L 31.78125 8.105469 L 31.78125 29.066406 L 5.71875 29.066406 L 5.71875 28.261719 L 4.089844 28.261719 L 4.089844 29.875 C 4.089844 30.097656 4.167969 30.285156 4.328125 30.445312 C 4.488281 30.601562 4.679688 30.679688 4.90625 30.679688 L 32.59375 30.679688 C 32.820312 30.679688 33.011719 30.601562 33.171875 30.445312 C 33.332031 30.285156 33.410156 30.097656 33.410156 29.875 L 33.410156 7.296875 C 33.410156 7.074219 33.332031 6.886719 33.171875 6.726562 C 33.011719 6.570312 32.820312 6.492188 32.59375 6.492188 Z M 35.039062 10.523438 L 35.039062 12.136719 L 35.851562 12.136719 L 35.851562 33.097656 L 9.789062 33.097656 L 9.789062 32.292969 L 8.160156 32.292969 L 8.160156 33.90625 C 8.164062 34.128906 8.242188 34.316406 8.402344 34.476562 C 8.558594 34.632812 8.75 34.710938 8.976562 34.710938 L 36.667969 34.710938 C 36.894531 34.710938 37.085938 34.632812 37.242188 34.476562 C 37.402344 34.316406 37.480469 34.128906 37.480469 33.90625 L 37.480469 11.328125 C 37.480469 11.105469 37.402344 10.917969 37.242188 10.757812 C 37.085938 10.601562 36.894531 10.523438 36.667969 10.523438 Z M 35.039062 10.523438 " fill-opacity="1" fill-rule="nonzero"/></g></svg>