<svg xmlns="http://www.w3.org/2000/svg" xmlns:xlink="http://www.w3.org/1999/xlink" width="50" zoomAndPan="magnify" viewBox="0 0 37.5 37.499999" height="50" preserveAspectRatio="xMidYMid meet" version="1.0"><defs><clipPath id="363e35427b"><path d="M 2.453125 0 L 34.703125 0 L 34.703125 37.007812 L 2.453125 37.007812 Z M 2.453125 0 " clip-rule="nonzero"/></clipPath></defs><g clip-path="url(#363e35427b)"><path fill="#ffffff" d="M 29.070312 37.496094 L 7.984375 37.496094 C 7.621094 37.496094 7.265625 37.460938 6.910156 37.386719 C 6.554688 37.316406 6.210938 37.210938 5.875 37.070312 C 5.542969 36.929688 5.226562 36.757812 4.925781 36.554688 C 4.625 36.351562 4.34375 36.121094 4.089844 35.863281 C 3.835938 35.605469 3.605469 35.324219 3.40625 35.019531 C 3.203125 34.714844 3.035156 34.394531 2.894531 34.058594 C 2.757812 33.71875 2.652344 33.371094 2.582031 33.011719 C 2.511719 32.65625 2.472656 32.292969 2.472656 31.925781 L 2.472656 16.992188 C 2.472656 16.28125 2.601562 15.597656 2.867188 14.9375 C 3.128906 14.28125 3.507812 13.695312 3.996094 13.1875 L 15.277344 1.398438 C 15.488281 1.175781 15.714844 0.980469 15.964844 0.804688 C 16.214844 0.632812 16.480469 0.484375 16.761719 0.363281 C 17.039062 0.242188 17.328125 0.152344 17.625 0.09375 C 17.921875 0.03125 18.222656 0 18.527344 0 C 18.832031 0 19.132812 0.03125 19.429688 0.09375 C 19.726562 0.152344 20.015625 0.242188 20.292969 0.363281 C 20.574219 0.484375 20.835938 0.632812 21.085938 0.804688 C 21.335938 0.980469 21.566406 1.175781 21.777344 1.398438 L 34.109375 14.285156 C 34.265625 14.445312 34.382812 14.632812 34.464844 14.839844 C 34.546875 15.050781 34.589844 15.265625 34.585938 15.492188 C 34.582031 15.71875 34.535156 15.933594 34.449219 16.140625 C 34.359375 16.347656 34.234375 16.53125 34.074219 16.6875 C 33.914062 16.84375 33.730469 16.960938 33.523438 17.046875 C 33.316406 17.128906 33.097656 17.167969 32.875 17.164062 C 32.652344 17.160156 32.4375 17.109375 32.234375 17.019531 C 32.03125 16.929688 31.851562 16.804688 31.695312 16.640625 L 19.367188 3.757812 C 19.257812 3.644531 19.128906 3.550781 18.984375 3.488281 C 18.839844 3.425781 18.6875 3.394531 18.527344 3.394531 C 18.367188 3.394531 18.214844 3.425781 18.070312 3.488281 C 17.925781 3.550781 17.796875 3.644531 17.6875 3.757812 L 6.40625 15.542969 C 6.019531 15.949219 5.828125 16.433594 5.832031 16.996094 L 5.832031 31.925781 C 5.832031 32.214844 5.886719 32.492188 5.996094 32.761719 C 6.105469 33.027344 6.261719 33.261719 6.464844 33.46875 C 6.667969 33.671875 6.902344 33.828125 7.164062 33.941406 C 7.429688 34.050781 7.703125 34.105469 7.988281 34.105469 L 29.074219 34.105469 C 29.296875 34.105469 29.511719 34.148438 29.714844 34.234375 C 29.921875 34.320312 30.101562 34.445312 30.261719 34.601562 C 30.417969 34.761719 30.539062 34.945312 30.625 35.152344 C 30.707031 35.359375 30.75 35.578125 30.75 35.800781 C 30.75 36.027344 30.707031 36.242188 30.625 36.449219 C 30.539062 36.65625 30.417969 36.839844 30.261719 37 C 30.101562 37.160156 29.921875 37.28125 29.714844 37.367188 C 29.511719 37.453125 29.296875 37.496094 29.074219 37.496094 Z M 29.070312 37.496094 " fill-opacity="1" fill-rule="nonzero"/></g></svg>