<svg xmlns="http://www.w3.org/2000/svg" xmlns:xlink="http://www.w3.org/1999/xlink" width="120" zoomAndPan="magnify" viewBox="0 0 90 89.999999" height="120" preserveAspectRatio="xMidYMid meet" version="1.0"><defs><clipPath id="10af2b006d"><path d="M 6 1.40625 L 88 1.40625 L 88 83 L 6 83 Z M 6 1.40625 " clip-rule="nonzero"/></clipPath></defs><g clip-path="url(#10af2b006d)"><path fill="#ffffff" d="M 77.921875 10.570312 C 72.046875 4.710938 64.242188 1.484375 55.9375 1.484375 C 47.628906 1.484375 39.820312 4.710938 33.945312 10.570312 C 28.070312 16.429688 24.835938 24.226562 24.835938 32.515625 C 24.835938 39.722656 27.289062 46.546875 31.785156 52.0625 L 25.785156 58.054688 L 24.417969 56.6875 L 6.207031 74.855469 L 13.496094 82.128906 L 31.699219 63.960938 L 30.335938 62.597656 L 36.339844 56.609375 C 41.867188 61.101562 48.707031 63.542969 55.929688 63.542969 C 64.238281 63.542969 72.046875 60.316406 77.921875 54.453125 C 90.046875 42.355469 90.046875 22.671875 77.921875 10.570312 Z M 74.566406 51.097656 C 69.585938 56.066406 62.972656 58.796875 55.929688 58.796875 C 48.890625 58.796875 42.277344 56.0625 37.300781 51.097656 C 32.328125 46.136719 29.585938 39.535156 29.585938 32.515625 C 29.585938 25.492188 32.328125 18.886719 37.300781 13.925781 C 42.277344 8.957031 48.890625 6.226562 55.933594 6.226562 C 62.96875 6.226562 69.582031 8.960938 74.5625 13.925781 C 84.832031 24.179688 84.832031 40.855469 74.566406 51.097656 Z M 74.566406 51.097656 " fill-opacity="1" fill-rule="nonzero"/></g><path fill="#ffffff" d="M 55.933594 9.761719 C 49.839844 9.761719 44.117188 12.132812 39.8125 16.425781 C 39.164062 17.070312 39.164062 18.125 39.8125 18.773438 C 40.460938 19.421875 41.515625 19.421875 42.164062 18.773438 C 45.84375 15.101562 50.734375 13.085938 55.933594 13.085938 C 61.136719 13.085938 66.023438 15.101562 69.707031 18.773438 C 70.027344 19.101562 70.453125 19.257812 70.882812 19.257812 C 71.304688 19.257812 71.734375 19.101562 72.0625 18.773438 C 72.710938 18.125 72.710938 17.070312 72.0625 16.425781 C 67.75 12.132812 62.023438 9.761719 55.933594 9.761719 Z M 55.933594 9.761719 " fill-opacity="1" fill-rule="nonzero"/><path fill="#ffffff" d="M 1.933594 79.121094 C 0.0742188 80.972656 0.0742188 83.980469 1.933594 85.828125 L 2.5 86.394531 C 4.359375 88.246094 7.367188 88.246094 9.222656 86.394531 L 11.726562 83.898438 L 4.4375 76.625 Z M 1.933594 79.121094 " fill-opacity="1" fill-rule="nonzero"/></svg>