<svg xmlns="http://www.w3.org/2000/svg" xmlns:xlink="http://www.w3.org/1999/xlink" width="100" zoomAndPan="magnify" viewBox="0 0 75 74.999997" height="100" preserveAspectRatio="xMidYMid meet" version="1.0"><defs><clipPath id="b9617309a7"><path d="M 28 19 L 66.46875 19 L 66.46875 75 L 28 75 Z M 28 19 " clip-rule="nonzero"/></clipPath><clipPath id="777aee8e4c"><path d="M 8.71875 19 L 20 19 L 20 22 L 8.71875 22 Z M 8.71875 19 " clip-rule="nonzero"/></clipPath></defs><g clip-path="url(#b9617309a7)"><path fill="#ffffff" d="M 41.214844 57.5625 L 47.363281 71.820312 L 53.726562 69.078125 L 47.601562 54.878906 L 60.816406 53.449219 L 31.136719 25.410156 L 31.125 66.226562 Z M 46.101562 74.992188 L 40.296875 61.535156 L 28.707031 71.488281 L 28.722656 19.804688 L 66.28125 55.289062 L 51.117188 56.929688 L 56.902344 70.339844 L 46.101562 74.992188 " fill-opacity="1" fill-rule="nonzero"/></g><path fill="#ffffff" d="M 29.113281 11.261719 C 28.445312 11.261719 27.902344 10.71875 27.902344 10.050781 L 27.902344 1.207031 C 27.902344 0.539062 28.445312 -0.00390625 29.113281 -0.00390625 C 29.78125 -0.00390625 30.320312 0.539062 30.320312 1.207031 L 30.320312 10.050781 C 30.320312 10.71875 29.78125 11.261719 29.113281 11.261719 " fill-opacity="1" fill-rule="nonzero"/><path fill="#ffffff" d="M 21.800781 14.300781 C 21.492188 14.300781 21.183594 14.183594 20.945312 13.945312 L 14.691406 7.691406 C 14.21875 7.21875 14.21875 6.453125 14.691406 5.984375 C 15.164062 5.511719 15.929688 5.511719 16.402344 5.984375 L 22.65625 12.238281 C 23.128906 12.710938 23.128906 13.476562 22.65625 13.945312 C 22.417969 14.183594 22.109375 14.300781 21.800781 14.300781 " fill-opacity="1" fill-rule="nonzero"/><g clip-path="url(#777aee8e4c)"><path fill="#ffffff" d="M 18.78125 21.621094 L 9.9375 21.621094 C 9.269531 21.621094 8.726562 21.078125 8.726562 20.414062 C 8.726562 19.746094 9.269531 19.203125 9.9375 19.203125 L 18.78125 19.203125 C 19.449219 19.203125 19.988281 19.746094 19.988281 20.414062 C 19.988281 21.078125 19.449219 21.621094 18.78125 21.621094 " fill-opacity="1" fill-rule="nonzero"/></g><path fill="#ffffff" d="M 15.566406 35.1875 C 15.257812 35.1875 14.949219 35.070312 14.710938 34.832031 C 14.242188 34.359375 14.242188 33.59375 14.710938 33.125 L 20.96875 26.867188 C 21.441406 26.398438 22.203125 26.398438 22.675781 26.867188 C 23.148438 27.339844 23.148438 28.105469 22.675781 28.578125 L 16.421875 34.832031 C 16.183594 35.070312 15.875 35.1875 15.566406 35.1875 " fill-opacity="1" fill-rule="nonzero"/><path fill="#ffffff" d="M 48.320312 21.589844 L 39.472656 21.589844 C 38.804688 21.589844 38.265625 21.050781 38.265625 20.382812 C 38.265625 19.714844 38.804688 19.175781 39.472656 19.175781 L 48.320312 19.175781 C 48.984375 19.175781 49.527344 19.714844 49.527344 20.382812 C 49.527344 21.050781 48.984375 21.589844 48.320312 21.589844 " fill-opacity="1" fill-rule="nonzero"/><path fill="#ffffff" d="M 36.433594 14.28125 C 36.121094 14.28125 35.8125 14.160156 35.578125 13.925781 C 35.105469 13.453125 35.105469 12.6875 35.578125 12.21875 L 41.832031 5.960938 C 42.304688 5.492188 43.070312 5.492188 43.542969 5.960938 C 44.011719 6.433594 44.011719 7.199219 43.542969 7.671875 L 37.285156 13.925781 C 37.050781 14.160156 36.742188 14.28125 36.433594 14.28125 " fill-opacity="1" fill-rule="nonzero"/></svg>