<svg xmlns="http://www.w3.org/2000/svg" xmlns:xlink="http://www.w3.org/1999/xlink" width="100" zoomAndPan="magnify" viewBox="0 0 75 74.999997" height="100" preserveAspectRatio="xMidYMid meet" version="1.0"><defs><clipPath id="0aa134f216"><path d="M 16 12 L 59.8125 12 L 59.8125 75 L 16 75 Z M 16 12 " clip-rule="nonzero"/></clipPath></defs><g clip-path="url(#0aa134f216)"><path fill="#ffffff" d="M 59.417969 45.703125 L 59.417969 40.449219 C 59.417969 38.296875 57.652344 36.535156 55.5 36.535156 C 53.34375 36.535156 51.582031 38.296875 51.582031 40.449219 L 51.582031 37.042969 C 51.582031 34.890625 49.820312 33.128906 47.664062 33.128906 C 45.511719 33.128906 43.746094 34.890625 43.746094 37.042969 L 43.746094 33.636719 C 43.746094 31.484375 41.984375 29.71875 39.828125 29.71875 C 37.675781 29.71875 35.914062 31.484375 35.914062 33.636719 L 35.914062 16.265625 C 35.914062 14.113281 34.148438 12.347656 31.996094 12.347656 C 29.839844 12.347656 28.078125 14.113281 28.078125 16.265625 L 28.078125 55.046875 L 24.441406 48.75 C 23.222656 46.640625 20.5 45.910156 18.390625 47.128906 C 16.28125 48.347656 15.554688 51.066406 16.769531 53.175781 L 24.277344 66.167969 C 27.324219 71.320312 33.628906 74.882812 40.875 74.882812 C 51.074219 74.882812 59.417969 67.832031 59.417969 59.214844 Z M 59.417969 45.703125 " fill-opacity="1" fill-rule="nonzero"/></g><path fill="#ffffff" d="M 24.816406 13.652344 C 26.257812 9.695312 30.652344 7.648438 34.609375 9.089844 C 38.566406 10.527344 40.613281 14.921875 39.175781 18.878906 C 38.738281 20.078125 38.03125 21.097656 37.148438 21.902344 L 37.148438 23.585938 C 38.59375 22.570312 39.757812 21.117188 40.40625 19.328125 C 42.097656 14.683594 39.703125 9.546875 35.058594 7.855469 C 30.410156 6.164062 25.273438 8.558594 23.585938 13.203125 C 22.171875 17.089844 23.617188 21.316406 26.84375 23.585938 L 26.84375 21.90625 C 24.632812 19.878906 23.730469 16.644531 24.816406 13.652344 Z M 24.816406 13.652344 " fill-opacity="1" fill-rule="nonzero"/><path fill="#ffffff" d="M 20.277344 12 C 22.628906 5.539062 29.800781 2.199219 36.261719 4.550781 C 42.722656 6.902344 46.0625 14.070312 43.710938 20.53125 C 42.519531 23.804688 40.09375 26.277344 37.144531 27.613281 L 37.144531 29.628906 C 40.871094 28.191406 43.980469 25.210938 45.453125 21.164062 C 48.160156 13.730469 44.328125 5.511719 36.894531 2.808594 C 29.460938 0.101562 21.242188 3.933594 18.539062 11.367188 C 15.863281 18.714844 19.578125 26.828125 26.84375 29.628906 L 26.84375 27.617188 C 20.972656 24.957031 18.039062 18.160156 20.277344 12 Z M 20.277344 12 " fill-opacity="1" fill-rule="nonzero"/></svg>