<svg xmlns="http://www.w3.org/2000/svg" xmlns:xlink="http://www.w3.org/1999/xlink" width="100" zoomAndPan="magnify" viewBox="0 0 75 74.999997" height="100" preserveAspectRatio="xMidYMid meet" version="1.0"><defs><clipPath id="e10240242c"><path d="M 11.203125 0 L 27 0 L 27 20 L 11.203125 20 Z M 11.203125 0 " clip-rule="nonzero"/></clipPath><clipPath id="285569a93e"><path d="M 40 58 L 63.703125 58 L 63.703125 75 L 40 75 Z M 40 58 " clip-rule="nonzero"/></clipPath></defs><g clip-path="url(#e10240242c)"><path fill="#ca6659" d="M 11.480469 0.132812 C 11.683594 0.0429688 11.90625 0.0273438 12.125 0.0117188 C 12.414062 0.0078125 12.707031 0 12.996094 0.0234375 C 13.605469 0.101562 14.199219 0.269531 14.785156 0.441406 C 16.4375 0.953125 18.03125 1.625 19.609375 2.320312 C 21.554688 3.191406 23.46875 4.132812 25.355469 5.128906 C 25.824219 5.378906 26.296875 5.621094 26.75 5.898438 C 25.144531 5.167969 23.53125 4.460938 21.910156 3.765625 C 20.574219 3.195312 19.230469 2.640625 17.871094 2.121094 C 16.535156 1.617188 15.1875 1.117188 13.796875 0.785156 C 13.277344 0.671875 12.746094 0.570312 12.210938 0.613281 C 13.054688 1.074219 13.917969 1.523438 14.667969 2.132812 C 15.691406 2.945312 16.554688 4.019531 16.914062 5.292969 C 18.070312 9.574219 19.195312 13.863281 20.234375 18.175781 C 20.335938 18.613281 20.445312 19.050781 20.535156 19.492188 C 19.230469 15.417969 18.011719 11.316406 16.828125 7.207031 C 16.652344 6.601562 16.484375 5.996094 16.304688 5.390625 C 15.976562 4.332031 15.257812 3.4375 14.410156 2.746094 C 13.769531 2.21875 13.058594 1.789062 12.328125 1.394531 C 12.050781 1.242188 11.765625 1.101562 11.503906 0.921875 C 11.363281 0.824219 11.226562 0.679688 11.230469 0.5 C 11.226562 0.339844 11.339844 0.199219 11.480469 0.132812 Z M 11.480469 0.132812 " fill-opacity="1" fill-rule="nonzero"/></g><path fill="#ca6659" d="M 21.820312 4.683594 C 21.78125 4.65625 21.777344 4.617188 21.808594 4.574219 C 24.484375 6.339844 27.085938 8.214844 29.601562 10.199219 C 30.71875 11.085938 31.8125 12.003906 32.878906 12.960938 C 33.972656 13.949219 35.039062 14.984375 36.003906 16.101562 C 36.46875 16.648438 36.910156 17.210938 37.296875 17.8125 C 37.636719 18.363281 37.964844 18.921875 38.332031 19.460938 C 39.453125 21.121094 40.742188 22.660156 41.914062 24.289062 C 42.804688 25.523438 43.617188 26.816406 44.289062 28.1875 C 45.496094 30.644531 46.175781 33.367188 46.21875 36.105469 C 46.199219 36.105469 46.160156 36.109375 46.140625 36.109375 C 45.882812 34.355469 45.46875 32.621094 44.828125 30.964844 C 44.242188 29.449219 43.472656 28.003906 42.589844 26.644531 C 40.980469 24.148438 39.046875 21.878906 37.503906 19.34375 C 37.222656 18.894531 36.976562 18.425781 36.699219 17.976562 C 35.871094 16.691406 34.839844 15.558594 33.777344 14.46875 C 32.667969 13.355469 31.503906 12.292969 30.308594 11.269531 C 27.589844 8.9375 24.742188 6.757812 21.820312 4.683594 Z M 21.820312 4.683594 " fill-opacity="1" fill-rule="nonzero"/><path fill="#ca6659" d="M 29.398438 16.957031 C 29.511719 16.871094 29.628906 16.789062 29.746094 16.707031 C 32.574219 20.808594 35.347656 24.953125 38.039062 29.148438 C 39.671875 31.703125 41.277344 34.273438 42.800781 36.894531 C 43.566406 38.214844 44.308594 39.546875 44.988281 40.910156 C 45.734375 42.429688 46.410156 43.984375 47.058594 45.546875 C 48.28125 48.507812 49.398438 51.507812 50.53125 54.503906 C 50.585938 54.648438 50.546875 54.820312 50.644531 54.949219 C 50.789062 55.105469 50.828125 55.320312 50.910156 55.511719 C 51.164062 56.179688 51.417969 56.847656 51.679688 57.511719 C 52.207031 57.5 52.738281 57.484375 53.265625 57.429688 C 52.90625 56.648438 52.570312 55.859375 52.210938 55.078125 C 52.144531 54.957031 52.167969 54.8125 52.101562 54.691406 C 52.058594 54.601562 51.96875 54.546875 51.929688 54.457031 C 50.847656 52.09375 49.734375 49.738281 48.613281 47.390625 C 48.347656 46.832031 48.089844 46.273438 47.785156 45.730469 C 44.839844 40.238281 41.894531 34.746094 38.953125 29.25 C 39.078125 29.1875 39.199219 29.117188 39.324219 29.054688 C 42.371094 34.730469 45.414062 40.410156 48.457031 46.085938 C 49.507812 48.257812 50.535156 50.4375 51.550781 52.621094 C 51.875 53.308594 52.179688 54.003906 52.507812 54.691406 C 53.539062 54.734375 54.570312 54.84375 55.585938 55.03125 C 56.246094 55.164062 56.910156 55.316406 57.523438 55.605469 C 57.765625 55.726562 58.011719 55.875 58.152344 56.125 C 57.921875 55.796875 57.550781 55.636719 57.1875 55.503906 C 56.488281 55.257812 55.75 55.132812 55.015625 55.03125 C 54.207031 54.933594 53.390625 54.867188 52.574219 54.855469 C 52.960938 55.695312 53.335938 56.542969 53.707031 57.398438 C 54.675781 57.300781 55.648438 57.160156 56.585938 56.890625 C 56.914062 56.789062 57.242188 56.679688 57.539062 56.503906 C 57.644531 56.433594 57.769531 56.359375 57.808594 56.230469 C 57.917969 56.238281 58.03125 56.253906 58.144531 56.269531 C 58.144531 56.203125 58.144531 56.136719 58.148438 56.070312 C 58.152344 56.136719 58.152344 56.203125 58.15625 56.269531 C 58.28125 56.28125 58.410156 56.292969 58.539062 56.3125 C 58.519531 56.554688 58.386719 56.773438 58.203125 56.925781 C 57.902344 57.183594 57.523438 57.324219 57.15625 57.449219 C 56.121094 57.777344 55.042969 57.910156 53.964844 58 C 54.253906 58.714844 54.578125 59.425781 54.78125 60.171875 C 54.859375 60.640625 54.921875 61.117188 54.9375 61.59375 C 54.925781 61.855469 54.910156 62.152344 54.707031 62.34375 C 54.515625 62.527344 54.222656 62.5 53.996094 62.414062 C 53.726562 62.3125 53.449219 62.183594 53.269531 61.949219 C 53.023438 61.632812 52.839844 61.269531 52.660156 60.914062 C 52.214844 59.992188 51.824219 59.042969 51.453125 58.089844 C 49.679688 58.039062 47.886719 57.929688 46.160156 57.464844 C 45.742188 57.347656 45.320312 57.207031 44.945312 56.984375 C 44.730469 56.851562 44.515625 56.679688 44.441406 56.429688 C 44.371094 56.199219 44.484375 55.953125 44.65625 55.796875 C 44.941406 55.535156 45.308594 55.394531 45.671875 55.273438 C 46.601562 54.976562 47.574219 54.851562 48.539062 54.753906 C 49.070312 54.714844 49.601562 54.667969 50.136719 54.660156 C 48.910156 51.421875 47.707031 48.175781 46.363281 44.984375 C 45.765625 43.574219 45.148438 42.175781 44.460938 40.808594 C 43.734375 39.375 42.941406 37.976562 42.128906 36.589844 C 40.425781 33.6875 38.628906 30.84375 36.804688 28.019531 C 34.386719 24.296875 31.921875 20.605469 29.398438 16.957031 M 47.832031 55.117188 C 47.082031 55.238281 46.332031 55.378906 45.621094 55.652344 C 45.347656 55.765625 45.054688 55.886719 44.855469 56.121094 C 44.785156 56.203125 44.777344 56.328125 44.855469 56.410156 C 44.996094 56.578125 45.199219 56.679688 45.398438 56.769531 C 45.847656 56.964844 46.328125 57.074219 46.808594 57.175781 C 47.695312 57.339844 48.597656 57.445312 49.503906 57.476562 L 49.527344 57.492188 C 50.09375 57.503906 50.660156 57.535156 51.226562 57.519531 C 50.882812 56.644531 50.550781 55.765625 50.21875 54.886719 C 49.417969 54.914062 48.621094 55 47.832031 55.117188 M 51.90625 58.085938 C 52.335938 59.152344 52.757812 60.226562 53.3125 61.238281 C 53.46875 61.492188 53.613281 61.792969 53.910156 61.914062 C 54.066406 61.980469 54.25 62.105469 54.425781 62.03125 C 54.542969 61.824219 54.511719 61.578125 54.503906 61.351562 C 54.476562 61.066406 54.449219 60.777344 54.402344 60.496094 C 54.378906 60.21875 54.273438 59.960938 54.1875 59.699219 C 54 59.1875 53.789062 58.683594 53.578125 58.175781 C 53.550781 58.125 53.542969 58.0625 53.496094 58.027344 C 52.964844 58.070312 52.433594 58.074219 51.90625 58.085938 Z M 51.90625 58.085938 " fill-opacity="1" fill-rule="nonzero"/><path fill="#ca6659" d="M 20.722656 19.277344 C 20.804688 19.277344 20.886719 19.273438 20.96875 19.292969 C 22.691406 19.65625 24.394531 20.144531 26.023438 20.816406 C 26.703125 21.113281 27.390625 21.425781 27.964844 21.902344 C 28.183594 22.09375 28.433594 22.347656 28.371094 22.664062 C 28.304688 22.949219 28.003906 23.074219 27.742188 23.132812 C 27.078125 23.269531 26.394531 23.226562 25.722656 23.1875 C 24.289062 23.074219 22.867188 22.847656 21.46875 22.523438 C 23.175781 22.597656 24.882812 22.761719 26.59375 22.734375 C 27.011719 22.699219 27.457031 22.722656 27.847656 22.542969 C 27.609375 22.257812 27.292969 22.058594 26.980469 21.867188 C 26.417969 21.542969 25.824219 21.273438 25.230469 21.015625 C 23.859375 20.421875 22.457031 19.914062 21.0625 19.378906 C 20.953125 19.332031 20.839844 19.296875 20.722656 19.277344 Z M 20.722656 19.277344 " fill-opacity="1" fill-rule="nonzero"/><path fill="#ca6659" d="M 22.117188 23.140625 C 23.109375 25.375 23.863281 27.699219 24.765625 29.96875 C 25.03125 30.605469 25.289062 31.253906 25.671875 31.832031 C 25.71875 31.929688 25.84375 31.902344 25.933594 31.929688 C 27.226562 32.1875 28.503906 32.542969 29.714844 33.0625 C 30.222656 33.292969 30.734375 33.539062 31.152344 33.914062 C 31.3125 34.066406 31.480469 34.261719 31.457031 34.5 C 31.445312 34.71875 31.25 34.875 31.054688 34.941406 C 30.660156 35.074219 30.234375 35.078125 29.820312 35.074219 C 28.847656 35.058594 27.878906 34.90625 26.921875 34.742188 C 27.445312 35.394531 27.957031 36.054688 28.507812 36.6875 C 29.5625 37.925781 30.683594 39.113281 31.890625 40.203125 C 32.535156 40.765625 33.195312 41.308594 33.898438 41.796875 C 34.601562 42.269531 35.335938 42.691406 36.09375 43.070312 C 37.605469 43.835938 39.179688 44.472656 40.773438 45.050781 C 41.941406 45.480469 43.125 45.867188 44.316406 46.238281 C 44.523438 46.296875 44.722656 46.375 44.9375 46.40625 C 44.730469 46.421875 44.527344 46.363281 44.324219 46.335938 C 42.511719 46.015625 40.730469 45.539062 38.988281 44.941406 C 37.492188 44.414062 36.023438 43.804688 34.648438 43.015625 C 33.246094 42.210938 31.996094 41.164062 30.871094 40.007812 C 29.332031 38.417969 27.992188 36.640625 26.882812 34.726562 C 26.636719 34.679688 26.398438 34.617188 26.152344 34.566406 C 26.667969 34.546875 27.179688 34.589844 27.691406 34.59375 C 28.496094 34.609375 29.300781 34.632812 30.101562 34.585938 C 30.363281 34.558594 30.625 34.539062 30.875 34.457031 C 30.886719 34.414062 30.875 34.378906 30.839844 34.355469 C 30.503906 34.035156 30.089844 33.824219 29.683594 33.609375 C 28.476562 33.015625 27.214844 32.546875 25.96875 32.042969 C 25.855469 31.996094 25.730469 31.976562 25.625 31.90625 C 25.199219 31.523438 24.847656 31.066406 24.550781 30.578125 C 23.808594 29.339844 23.285156 27.980469 22.859375 26.605469 C 22.550781 25.59375 22.304688 24.566406 22.152344 23.519531 C 22.128906 23.394531 22.113281 23.269531 22.117188 23.140625 Z M 22.117188 23.140625 " fill-opacity="1" fill-rule="nonzero"/><path fill="#ca6659" d="M 49.074219 29.222656 C 49.257812 29.160156 49.433594 29.347656 49.441406 29.527344 C 49.546875 30.628906 49.585938 31.734375 49.605469 32.839844 C 49.613281 33.910156 49.613281 34.980469 49.550781 36.046875 C 49.496094 37.027344 49.410156 38.011719 49.207031 38.976562 C 49.097656 39.445312 48.988281 39.933594 48.707031 40.332031 C 48.902344 39.886719 48.953125 39.402344 49 38.925781 C 49.09375 37.902344 49.078125 36.871094 49.078125 35.839844 C 49.0625 35.128906 49.042969 34.417969 49.03125 33.707031 L 49.015625 33.679688 C 49.007812 33.136719 48.976562 32.597656 48.953125 32.054688 C 48.359375 33.480469 47.515625 34.78125 46.574219 36 C 46.34375 36.292969 46.109375 36.585938 45.859375 36.859375 C 46.734375 35.421875 47.59375 33.960938 48.234375 32.398438 C 48.5 31.730469 48.746094 31.039062 48.808594 30.320312 C 48.832031 30.039062 48.800781 29.757812 48.816406 29.476562 C 48.855469 29.359375 48.960938 29.269531 49.074219 29.222656 Z M 49.074219 29.222656 " fill-opacity="1" fill-rule="nonzero"/><path fill="#ca6659" d="M 50.609375 35.335938 C 50.671875 35.238281 50.757812 35.15625 50.867188 35.117188 C 51.019531 35.070312 51.160156 35.199219 51.210938 35.335938 C 51.242188 35.515625 51.253906 35.703125 51.261719 35.886719 L 51.273438 35.910156 C 51.390625 37.84375 51.445312 39.785156 51.34375 41.722656 C 51.296875 42.734375 51.210938 43.75 51.019531 44.746094 C 50.949219 45.09375 50.863281 45.441406 50.734375 45.773438 C 50.667969 45.933594 50.597656 46.097656 50.480469 46.230469 C 50.644531 45.914062 50.691406 45.554688 50.746094 45.210938 C 50.882812 44.042969 50.863281 42.863281 50.859375 41.6875 C 50.847656 40.792969 50.824219 39.898438 50.78125 39.003906 C 50.769531 38.648438 50.769531 38.292969 50.730469 37.941406 C 50.636719 38.25 50.476562 38.535156 50.335938 38.824219 C 49.957031 39.578125 49.511719 40.296875 49.03125 40.988281 C 48.597656 41.597656 48.148438 42.199219 47.644531 42.75 C 48.488281 41.367188 49.3125 39.960938 49.949219 38.46875 C 50.273438 37.667969 50.585938 36.835938 50.605469 35.960938 C 50.621094 35.753906 50.5625 35.539062 50.609375 35.335938 Z M 50.609375 35.335938 " fill-opacity="1" fill-rule="nonzero"/><path fill="#ca6659" d="M 53.195312 42.3125 C 53.265625 42.058594 53.671875 42.035156 53.761719 42.285156 C 53.871094 42.605469 53.769531 42.945312 53.707031 43.265625 C 53.570312 45.054688 53.414062 46.851562 52.992188 48.597656 C 52.851562 49.113281 52.730469 49.65625 52.410156 50.097656 C 52.546875 49.675781 52.601562 49.234375 52.652344 48.792969 C 52.746094 47.78125 52.8125 46.765625 52.882812 45.75 C 52.910156 45.390625 52.9375 45.035156 52.953125 44.675781 C 52.488281 45.339844 51.941406 45.953125 51.332031 46.488281 C 51.960938 45.519531 52.632812 44.554688 53.042969 43.464844 C 53.113281 43.085938 53.097656 42.6875 53.195312 42.3125 Z M 53.195312 42.3125 " fill-opacity="1" fill-rule="nonzero"/><path fill="#ca6659" d="M 39.773438 47.113281 C 39.773438 46.976562 39.800781 46.820312 39.921875 46.734375 C 40.042969 46.695312 40.171875 46.746094 40.273438 46.820312 C 40.878906 47.265625 41.59375 47.53125 42.292969 47.796875 C 43.699219 48.316406 45.136719 48.746094 46.5625 49.195312 C 46.859375 49.28125 47.148438 49.398438 47.449219 49.460938 C 47.035156 49.453125 46.628906 49.347656 46.222656 49.285156 C 44.789062 49.015625 43.371094 48.679688 41.984375 48.21875 C 43.1875 49.140625 44.382812 50.070312 45.628906 50.9375 C 45.847656 51.09375 46.082031 51.226562 46.296875 51.390625 C 45.496094 51.050781 44.738281 50.617188 43.996094 50.160156 C 42.761719 49.390625 41.570312 48.550781 40.417969 47.660156 C 40.203125 47.480469 39.972656 47.316406 39.773438 47.113281 Z M 39.773438 47.113281 " fill-opacity="1" fill-rule="nonzero"/><path fill="#ca6659" d="M 41.800781 50.007812 C 41.960938 49.9375 42.117188 50.046875 42.242188 50.136719 C 42.871094 50.578125 43.601562 50.835938 44.3125 51.109375 C 45.703125 51.613281 47.117188 52.039062 48.527344 52.484375 C 48.800781 52.5625 49.070312 52.671875 49.351562 52.726562 C 49.136719 52.738281 48.929688 52.683594 48.71875 52.65625 C 47.320312 52.417969 45.933594 52.109375 44.578125 51.703125 C 44.339844 51.644531 44.117188 51.535156 43.878906 51.5 C 43.90625 51.511719 43.953125 51.539062 43.980469 51.554688 C 45.148438 52.464844 46.328125 53.371094 47.546875 54.214844 C 47.761719 54.355469 47.964844 54.519531 48.199219 54.628906 C 47.886719 54.558594 47.613281 54.378906 47.324219 54.246094 C 45.933594 53.515625 44.628906 52.628906 43.351562 51.707031 C 42.78125 51.28125 42.195312 50.867188 41.667969 50.382812 C 41.664062 50.246094 41.691406 50.097656 41.800781 50.007812 Z M 41.800781 50.007812 " fill-opacity="1" fill-rule="nonzero"/><g clip-path="url(#285569a93e)"><path fill="#ca6659" d="M 55.628906 58.203125 C 56.546875 59.296875 57.410156 60.429688 58.257812 61.578125 C 59.1875 62.847656 60.085938 64.140625 60.914062 65.480469 C 61.5625 66.523438 62.179688 67.589844 62.699219 68.703125 C 63.089844 69.546875 63.441406 70.414062 63.613281 71.332031 C 63.675781 71.648438 63.648438 71.972656 63.65625 72.292969 C 63.667969 72.945312 63.253906 73.582031 62.652344 73.828125 C 62.085938 74.070312 61.480469 74.1875 60.878906 74.304688 C 59.617188 74.53125 58.339844 74.660156 57.0625 74.757812 C 55.332031 74.882812 53.59375 74.976562 51.855469 74.972656 C 50.199219 74.960938 48.539062 75 46.882812 74.898438 C 45.914062 74.855469 44.945312 74.777344 43.984375 74.664062 C 43.101562 74.550781 42.214844 74.425781 41.359375 74.164062 C 40.964844 74.03125 40.546875 73.886719 40.261719 73.566406 C 40.039062 73.320312 40.042969 72.964844 40.035156 72.652344 C 40.039062 71.796875 40.308594 70.96875 40.597656 70.167969 C 41.179688 68.632812 41.957031 67.179688 42.773438 65.757812 C 43.53125 64.441406 44.34375 63.160156 45.1875 61.898438 C 45.882812 60.859375 46.601562 59.832031 47.355469 58.832031 C 45.675781 61.464844 44.050781 64.136719 42.628906 66.921875 C 42.222656 67.730469 41.839844 68.546875 41.496094 69.382812 C 41.203125 70.101562 40.933594 70.832031 40.765625 71.589844 C 40.667969 72.066406 40.59375 72.558594 40.691406 73.042969 C 40.714844 73.175781 40.84375 73.242188 40.949219 73.308594 C 41.304688 73.492188 41.695312 73.589844 42.085938 73.679688 C 43.144531 73.90625 44.226562 74.007812 45.308594 74.089844 C 46.988281 74.207031 48.675781 74.261719 50.359375 74.253906 C 52.191406 74.261719 54.019531 74.207031 55.84375 74.117188 C 57.210938 74.03125 58.574219 73.929688 59.929688 73.753906 C 60.660156 73.652344 61.394531 73.546875 62.101562 73.332031 C 62.316406 73.257812 62.550781 73.1875 62.710938 73.015625 C 62.898438 72.839844 63.003906 72.589844 63.035156 72.335938 C 63.117188 71.6875 62.949219 71.035156 62.765625 70.417969 C 62.390625 69.234375 61.839844 68.113281 61.265625 67.019531 C 60.53125 65.625 59.707031 64.285156 58.863281 62.957031 C 57.824219 61.34375 56.742188 59.761719 55.628906 58.203125 Z M 55.628906 58.203125 " fill-opacity="1" fill-rule="nonzero"/></g><path fill="#ca6659" d="M 52.34375 65.675781 C 52.917969 65.679688 53.496094 65.601562 54.066406 65.695312 C 54.84375 65.820312 55.609375 66 56.351562 66.257812 C 56.703125 66.394531 57.070312 66.527344 57.351562 66.789062 C 57.492188 66.914062 57.496094 67.109375 57.488281 67.28125 C 57.488281 68.175781 57.488281 69.070312 57.488281 69.96875 C 57.488281 70.207031 57.441406 70.449219 57.320312 70.660156 C 57.09375 71.074219 56.632812 71.347656 56.160156 71.335938 C 52.886719 71.332031 49.613281 71.335938 46.339844 71.332031 C 45.683594 71.324219 45.09375 70.746094 45.082031 70.085938 C 45.082031 69.085938 45.082031 68.082031 45.082031 67.078125 C 45.070312 66.894531 45.234375 66.765625 45.375 66.675781 C 45.726562 66.460938 46.125 66.339844 46.515625 66.222656 C 47.320312 66.003906 48.144531 65.851562 48.972656 65.765625 C 50.097656 65.726562 51.222656 65.703125 52.34375 65.675781 Z M 52.34375 65.675781 " fill-opacity="1" fill-rule="nonzero"/></svg>