<svg xmlns="http://www.w3.org/2000/svg" xmlns:xlink="http://www.w3.org/1999/xlink" width="40" zoomAndPan="magnify" viewBox="0 0 30 30.000001" height="40" preserveAspectRatio="xMidYMid meet" version="1.0"><defs><clipPath id="2e4c17e561"><path d="M 0.496094 1.453125 L 29.503906 1.453125 L 29.503906 27.578125 L 0.496094 27.578125 Z M 0.496094 1.453125 " clip-rule="nonzero"/></clipPath></defs><g clip-path="url(#2e4c17e561)"><path fill="#ffffff" d="M 22.046875 25.0625 L 15.871094 21.746094 L 12.925781 19.925781 L 28.113281 3.515625 Z M 11.855469 19.875 L 10.074219 25.328125 L 8.210938 17.585938 L 26.011719 4.789062 C 26.058594 4.753906 26.117188 4.820312 26.078125 4.863281 C 23.828125 7.226562 11.890625 19.765625 11.855469 19.875 Z M 12.539062 20.660156 L 14.300781 21.746094 L 11.011719 25.335938 Z M 26.441406 3.460938 L 7.78125 16.871094 C 7.777344 16.871094 7.773438 16.867188 7.769531 16.863281 L 1.890625 13.28125 Z M 0.730469 12.835938 C 0.445312 12.953125 0.414062 13.34375 0.675781 13.5 L 7.574219 17.628906 L 7.574219 17.648438 L 9.773438 27.289062 C 9.839844 27.582031 10.207031 27.679688 10.410156 27.457031 L 15.074219 22.296875 L 22.230469 26.15625 C 22.4375 26.269531 22.699219 26.15625 22.761719 25.929688 L 29.488281 1.921875 C 29.570312 1.628906 29.277344 1.363281 28.992188 1.480469 L 0.730469 12.835938 " fill-opacity="1" fill-rule="nonzero"/></g></svg>