<svg xmlns="http://www.w3.org/2000/svg" xmlns:xlink="http://www.w3.org/1999/xlink" width="180" zoomAndPan="magnify" viewBox="0 0 135 30.000001" height="40" preserveAspectRatio="xMidYMid meet" version="1.0"><defs><clipPath id="9c4e01cf73"><path d="M 64 0.488281 L 71 0.488281 L 71 18 L 64 18 Z M 64 0.488281 " clip-rule="nonzero"/></clipPath><clipPath id="2610a4f4a7"><path d="M 88.183594 9.554688 L 132.820312 9.554688 L 132.820312 25.886719 L 88.183594 25.886719 Z M 88.183594 9.554688 " clip-rule="nonzero"/></clipPath><clipPath id="c74944f465"><path d="M 2.175781 9.554688 L 46.816406 9.554688 L 46.816406 25.886719 L 2.175781 25.886719 Z M 2.175781 9.554688 " clip-rule="nonzero"/></clipPath></defs><path fill="#ca6659" d="M 56.265625 15.574219 C 59.085938 18.050781 65.410156 19.300781 67.28125 23.054688 C 64.835938 21.882812 62.441406 21.113281 59.730469 20.320312 C 57.25 19.59375 54.925781 18.789062 52.925781 17.117188 C 51.074219 15.570312 50.394531 13.617188 49.804688 11.429688 C 52.511719 12.589844 55.019531 13.371094 57.984375 14.082031 C 61.84375 15.011719 64.679688 17.078125 66.417969 20.207031 C 63.703125 17.703125 55.5625 14.957031 56.265625 15.574219 Z M 68.585938 20.207031 C 70.320312 17.078125 73.15625 15.011719 77.015625 14.082031 C 79.980469 13.371094 82.488281 12.589844 85.195312 11.429688 C 84.605469 13.617188 83.921875 15.570312 82.074219 17.117188 C 80.078125 18.789062 77.75 19.59375 75.269531 20.320312 C 72.558594 21.113281 70.164062 21.882812 67.71875 23.054688 C 69.589844 19.300781 75.914062 18.050781 78.734375 15.574219 C 79.4375 14.957031 71.292969 17.703125 68.585938 20.207031 Z M 67.5 24.328125 C 68.160156 24.003906 68.808594 23.710938 68.886719 23.679688 C 70.003906 23.210938 71.15625 22.824219 72.3125 22.460938 C 75.410156 21.492188 78.609375 20.6875 81.414062 19.015625 C 84.804688 16.992188 85.839844 14.011719 86.785156 10.390625 C 86.9375 9.8125 86.136719 9.886719 85.84375 10.023438 C 82.886719 11.386719 80.0625 12.210938 76.925781 12.972656 C 74.992188 13.441406 73.1875 14.148438 71.53125 15.261719 C 69.828125 16.40625 68.488281 17.925781 67.5 19.671875 C 66.511719 17.925781 65.175781 16.40625 63.46875 15.261719 C 61.816406 14.148438 60.007812 13.441406 58.074219 12.972656 C 54.9375 12.210938 52.113281 11.386719 49.15625 10.023438 C 48.863281 9.886719 48.0625 9.8125 48.210938 10.390625 C 49.160156 14.011719 50.195312 16.992188 53.585938 19.015625 C 56.394531 20.6875 59.59375 21.492188 62.6875 22.460938 C 63.84375 22.824219 64.996094 23.210938 66.113281 23.679688 C 66.191406 23.710938 66.839844 24.003906 67.5 24.328125 " fill-opacity="1" fill-rule="nonzero"/><path fill="#ca6659" d="M 79.402344 22.710938 C 82.597656 22.019531 85.574219 21.300781 88.609375 19.800781 C 89.425781 19.398438 83.300781 20.734375 80.816406 21.296875 C 80.980469 21.203125 81.136719 21.136719 81.308594 21.035156 C 85.34375 18.632812 90.023438 16.53125 94.554688 18.601562 C 90.832031 21.652344 84.046875 24.46875 79.402344 22.710938 Z M 96.039062 17.839844 C 92.890625 16.105469 89.539062 16.304688 86.195312 17.460938 C 84.46875 18.058594 82.871094 18.894531 81.296875 19.816406 C 79.664062 20.765625 78.304688 21.753906 76.300781 22.066406 C 75.242188 22.230469 71.949219 23.582031 72.894531 23.429688 C 73.675781 23.300781 74.453125 23.1875 75.234375 23.066406 C 75.582031 23.011719 75.925781 22.953125 76.273438 22.890625 C 76.480469 22.851562 77.550781 23.335938 77.941406 23.527344 C 78.289062 23.695312 78.648438 23.847656 79.011719 23.96875 C 79.761719 24.21875 80.542969 24.367188 81.324219 24.429688 C 84.082031 24.652344 86.871094 23.929688 89.394531 22.875 C 91.800781 21.863281 94.125 20.488281 96.046875 18.722656 C 96.34375 18.449219 96.429688 18.054688 96.039062 17.839844 " fill-opacity="1" fill-rule="nonzero"/><path fill="#ca6659" d="M 55.597656 22.710938 C 52.402344 22.019531 49.425781 21.300781 46.394531 19.800781 C 45.574219 19.398438 51.695312 20.734375 54.183594 21.296875 C 54.019531 21.203125 53.863281 21.136719 53.691406 21.035156 C 49.65625 18.632812 44.976562 16.53125 40.449219 18.601562 C 44.167969 21.652344 50.953125 24.46875 55.597656 22.710938 Z M 38.957031 17.839844 C 42.109375 16.105469 45.464844 16.304688 48.804688 17.460938 C 50.53125 18.058594 52.128906 18.894531 53.703125 19.816406 C 55.332031 20.765625 56.691406 21.753906 58.695312 22.066406 C 59.757812 22.230469 63.050781 23.582031 62.109375 23.429688 C 61.328125 23.300781 60.546875 23.1875 59.765625 23.066406 C 59.417969 23.011719 59.074219 22.953125 58.726562 22.890625 C 58.519531 22.851562 57.449219 23.335938 57.058594 23.527344 C 56.710938 23.695312 56.355469 23.847656 55.984375 23.96875 C 55.238281 24.21875 54.460938 24.367188 53.671875 24.429688 C 50.917969 24.652344 48.125 23.929688 45.605469 22.875 C 43.199219 21.863281 40.875 20.488281 38.953125 18.722656 C 38.65625 18.449219 38.570312 18.054688 38.957031 17.839844 " fill-opacity="1" fill-rule="nonzero"/><g clip-path="url(#9c4e01cf73)"><path fill="#ca6659" d="M 67.5 4.3125 C 67.820312 5.160156 68.105469 6.03125 68.296875 6.933594 C 68.5 7.886719 68.800781 9.304688 68.832031 10.296875 C 68.890625 12.054688 68.335938 13.746094 67.5 14.953125 C 66.660156 13.746094 66.109375 12.054688 66.164062 10.296875 C 66.199219 9.304688 66.5 7.886719 66.707031 6.933594 C 66.898438 6.03125 67.175781 5.160156 67.5 4.3125 Z M 67.5 17.164062 C 68.988281 15.019531 70.410156 12.980469 70.195312 9.601562 C 70.035156 7.101562 69.320312 4.832031 68.488281 2.691406 C 68.320312 2.253906 67.925781 1.394531 67.5 0.492188 C 67.074219 1.394531 66.679688 2.253906 66.511719 2.691406 C 65.679688 4.832031 64.960938 7.101562 64.804688 9.601562 C 64.589844 12.980469 66.011719 15.019531 67.5 17.164062 " fill-opacity="1" fill-rule="nonzero"/></g><g clip-path="url(#2610a4f4a7)"><path fill="#ca6659" d="M 121.835938 24.488281 C 122.5625 24.453125 123.371094 24.210938 124.070312 24.03125 C 124.851562 23.832031 125.386719 23.644531 125.902344 23.019531 C 125.191406 22.96875 124.460938 23.246094 123.746094 23.316406 C 122.996094 23.390625 119.933594 24.039062 119.167969 24.167969 C 122.542969 21.929688 127 20.488281 130.917969 21.761719 C 128.277344 23.585938 125.128906 24.335938 121.835938 24.488281 Z M 102.734375 14.554688 C 103.976562 13.363281 105.457031 12.582031 106.898438 11.730469 C 106.257812 13.125 105.6875 14.542969 104.625 15.734375 C 103.78125 16.679688 102.75 17.421875 101.691406 18.132812 C 101.980469 17.9375 102.238281 17.46875 102.464844 17.195312 C 102.742188 16.871094 104.722656 14.832031 104.191406 14.796875 C 103.964844 14.78125 103.730469 15.097656 103.574219 15.230469 C 103.367188 15.402344 100.5625 17.789062 100.234375 18.1875 C 99.964844 18.515625 99.460938 18.929688 99.296875 19.316406 C 100.070312 17.515625 101.378906 15.859375 102.734375 14.554688 Z M 112.503906 17.460938 C 112.8125 17.449219 113.117188 17.4375 113.421875 17.429688 C 113.621094 17.425781 114.238281 17.316406 114.398438 17.425781 C 113.476562 16.804688 112.578125 16.703125 111.492188 16.578125 C 111.808594 16.542969 112.125 16.492188 112.4375 16.472656 C 114.085938 16.347656 117.863281 16.121094 119.300781 17.589844 C 114.730469 19.15625 110.722656 18.496094 106.199219 18.121094 C 107.449219 17.578125 108.78125 17.601562 110.117188 17.558594 C 110.84375 17.539062 111.570312 17.5 112.292969 17.46875 C 112.363281 17.464844 112.433594 17.460938 112.503906 17.460938 Z M 132.558594 20.980469 C 127.402344 18.75 121.242188 21.121094 117.105469 24.371094 C 114.042969 24.113281 111.015625 23.574219 108.3125 23.148438 C 104.46875 22.539062 100.65625 22.097656 96.90625 22.363281 C 97.335938 22.152344 97.746094 21.894531 98.195312 21.71875 C 98.9375 21.429688 99.617188 20.960938 100.320312 20.589844 C 101.105469 20.167969 101.894531 19.746094 102.675781 19.316406 C 102.824219 19.234375 102.988281 19.175781 103.136719 19.097656 C 103.160156 19.101562 103.171875 19.109375 103.195312 19.113281 C 109.421875 19.355469 114.410156 20.746094 120.429688 18.300781 C 120.777344 18.160156 121.164062 17.8125 120.976562 17.40625 C 119.367188 13.890625 111.527344 15.320312 108.8125 15.953125 C 107.273438 16.3125 105.851562 16.789062 104.476562 17.371094 C 104.878906 17.039062 105.261719 16.6875 105.613281 16.296875 C 107.199219 14.542969 107.710938 12.324219 108.914062 10.367188 C 109.378906 9.617188 108.460938 9.433594 107.945312 9.820312 C 105.527344 11.644531 102.878906 12.652344 100.835938 15.007812 C 99.292969 16.796875 97.878906 18.832031 97.394531 21.164062 C 97.359375 21.316406 96.378906 21.664062 96.214844 21.742188 C 95.753906 21.960938 95.292969 22.167969 94.824219 22.371094 C 94.019531 22.714844 93.222656 22.769531 92.394531 23.054688 C 91.769531 23.269531 91.117188 23.433594 90.457031 23.566406 C 89.6875 23.722656 88.875 23.773438 88.242188 24.269531 C 89.519531 24.246094 90.855469 24.21875 92.125 24.089844 C 95.078125 23.789062 97.949219 23.507812 100.925781 23.71875 C 103.890625 23.925781 106.824219 24.398438 109.753906 24.847656 C 115.328125 25.695312 121.273438 26.636719 126.785156 24.941406 C 128.894531 24.292969 130.859375 23.25 132.566406 21.859375 C 132.855469 21.628906 132.960938 21.152344 132.558594 20.980469 " fill-opacity="1" fill-rule="nonzero"/></g><g clip-path="url(#c74944f465)"><path fill="#ca6659" d="M 13.164062 24.488281 C 12.4375 24.453125 11.628906 24.210938 10.925781 24.03125 C 10.148438 23.832031 9.613281 23.644531 9.097656 23.019531 C 9.808594 22.96875 10.539062 23.246094 11.253906 23.316406 C 12.003906 23.390625 15.066406 24.039062 15.832031 24.167969 C 12.457031 21.929688 8 20.488281 4.082031 21.761719 C 6.722656 23.585938 9.871094 24.335938 13.164062 24.488281 Z M 32.261719 14.554688 C 31.019531 13.363281 29.542969 12.582031 28.101562 11.730469 C 28.742188 13.125 29.3125 14.542969 30.375 15.734375 C 31.214844 16.679688 32.25 17.421875 33.308594 18.132812 C 33.015625 17.9375 32.761719 17.46875 32.53125 17.195312 C 32.257812 16.871094 30.277344 14.832031 30.804688 14.796875 C 31.035156 14.78125 31.273438 15.097656 31.425781 15.230469 C 31.632812 15.402344 34.4375 17.789062 34.765625 18.1875 C 35.035156 18.515625 35.539062 18.929688 35.707031 19.316406 C 34.929688 17.515625 33.621094 15.859375 32.261719 14.554688 Z M 22.496094 17.460938 C 22.191406 17.449219 21.886719 17.4375 21.582031 17.429688 C 21.378906 17.425781 20.765625 17.316406 20.605469 17.425781 C 21.519531 16.804688 22.417969 16.703125 23.507812 16.578125 C 23.191406 16.542969 22.875 16.492188 22.558594 16.472656 C 20.914062 16.347656 17.136719 16.121094 15.699219 17.589844 C 20.269531 19.15625 24.277344 18.496094 28.800781 18.121094 C 27.546875 17.578125 26.21875 17.601562 24.878906 17.558594 C 24.15625 17.539062 23.429688 17.5 22.703125 17.46875 C 22.632812 17.464844 22.5625 17.460938 22.496094 17.460938 Z M 2.441406 20.980469 C 7.597656 18.75 13.757812 21.121094 17.894531 24.371094 C 20.957031 24.113281 23.984375 23.574219 26.6875 23.148438 C 30.53125 22.539062 34.339844 22.097656 38.09375 22.363281 C 37.664062 22.152344 37.253906 21.894531 36.804688 21.71875 C 36.0625 21.429688 35.382812 20.960938 34.679688 20.589844 C 33.890625 20.167969 33.109375 19.746094 32.320312 19.316406 C 32.175781 19.234375 32.011719 19.175781 31.863281 19.097656 C 31.839844 19.101562 31.828125 19.109375 31.800781 19.113281 C 25.574219 19.355469 20.589844 20.746094 14.570312 18.300781 C 14.222656 18.160156 13.832031 17.8125 14.019531 17.40625 C 15.632812 13.890625 23.472656 15.320312 26.1875 15.953125 C 27.726562 16.3125 29.148438 16.789062 30.519531 17.371094 C 30.121094 17.039062 29.738281 16.6875 29.386719 16.296875 C 27.800781 14.542969 27.289062 12.324219 26.085938 10.367188 C 25.621094 9.617188 26.539062 9.433594 27.054688 9.820312 C 29.46875 11.644531 32.121094 12.652344 34.160156 15.007812 C 35.707031 16.796875 37.125 18.832031 37.605469 21.164062 C 37.636719 21.316406 38.617188 21.664062 38.785156 21.742188 C 39.242188 21.960938 39.710938 22.167969 40.175781 22.371094 C 40.976562 22.714844 41.777344 22.769531 42.601562 23.054688 C 43.230469 23.269531 43.886719 23.433594 44.546875 23.566406 C 45.3125 23.722656 46.128906 23.773438 46.757812 24.269531 C 45.480469 24.246094 44.144531 24.21875 42.878906 24.089844 C 39.921875 23.789062 37.046875 23.507812 34.074219 23.71875 C 31.113281 23.925781 28.175781 24.398438 25.246094 24.847656 C 19.667969 25.695312 13.726562 26.636719 8.214844 24.941406 C 6.105469 24.292969 4.140625 23.25 2.433594 21.859375 C 2.148438 21.628906 2.039062 21.152344 2.441406 20.980469 " fill-opacity="1" fill-rule="nonzero"/></g></svg>