<svg xmlns="http://www.w3.org/2000/svg" xmlns:xlink="http://www.w3.org/1999/xlink" width="180" zoomAndPan="magnify" viewBox="0 0 135 30.000001" height="40" preserveAspectRatio="xMidYMid meet" version="1.0"><defs><clipPath id="0ae6f34fbc"><path d="M 56 6.269531 L 79 6.269531 L 79 18 L 56 18 Z M 56 6.269531 " clip-rule="nonzero"/></clipPath><clipPath id="313f6beb39"><path d="M 61 6.269531 L 74 6.269531 L 74 13 L 61 13 Z M 61 6.269531 " clip-rule="nonzero"/></clipPath><clipPath id="68df66c02e"><path d="M 81.75 6.269531 L 132.277344 6.269531 L 132.277344 7.828125 L 81.75 7.828125 Z M 81.75 6.269531 " clip-rule="nonzero"/></clipPath><clipPath id="26d9570c95"><path d="M 2.175781 6.269531 L 54 6.269531 L 54 8 L 2.175781 8 Z M 2.175781 6.269531 " clip-rule="nonzero"/></clipPath><clipPath id="fbae9bc37e"><path d="M 81.75 14.0625 L 132.277344 14.0625 L 132.277344 15.621094 L 81.75 15.621094 Z M 81.75 14.0625 " clip-rule="nonzero"/></clipPath><clipPath id="d968fba148"><path d="M 2.175781 14 L 54 14 L 54 16 L 2.175781 16 Z M 2.175781 14 " clip-rule="nonzero"/></clipPath><clipPath id="e8320b7690"><path d="M 52 6.269531 L 82.945312 6.269531 L 82.945312 22.960938 L 52 22.960938 Z M 52 6.269531 " clip-rule="nonzero"/></clipPath></defs><g clip-path="url(#0ae6f34fbc)"><path fill="#ca6659" d="M 67.5 15.078125 L 67.5 15.082031 L 74.742188 7.75 L 60.253906 7.75 L 67.496094 15.082031 Z M 67.5 6.269531 L 78.277344 6.269531 L 67.519531 17.160156 L 67.511719 17.148438 L 67.5 17.15625 L 67.5 17.152344 L 67.496094 17.15625 L 67.488281 17.148438 L 67.476562 17.160156 L 56.722656 6.269531 L 67.5 6.269531 " fill-opacity="1" fill-rule="nonzero"/></g><g clip-path="url(#313f6beb39)"><path fill="#ca6659" d="M 67.5 10.109375 L 69.828125 7.75 L 65.167969 7.75 Z M 67.5 6.269531 L 73.363281 6.269531 L 67.5 12.207031 L 61.632812 6.269531 L 67.5 6.269531 " fill-opacity="1" fill-rule="nonzero"/></g><g clip-path="url(#68df66c02e)"><path fill="#ca6659" d="M 132.21875 7.75 L 81.835938 7.75 L 81.835938 6.269531 L 132.21875 6.269531 L 132.21875 7.75 " fill-opacity="1" fill-rule="nonzero"/></g><g clip-path="url(#26d9570c95)"><path fill="#ca6659" d="M 2.78125 7.75 L 53.164062 7.75 L 53.164062 6.269531 L 2.78125 6.269531 L 2.78125 7.75 " fill-opacity="1" fill-rule="nonzero"/></g><path fill="#ca6659" d="M 128.589844 11.734375 L 78.207031 11.734375 L 78.207031 10.253906 L 128.589844 10.253906 L 128.589844 11.734375 " fill-opacity="1" fill-rule="nonzero"/><path fill="#ca6659" d="M 6.410156 11.734375 L 56.792969 11.734375 L 56.792969 10.253906 L 6.410156 10.253906 L 6.410156 11.734375 " fill-opacity="1" fill-rule="nonzero"/><g clip-path="url(#fbae9bc37e)"><path fill="#ca6659" d="M 132.277344 15.605469 L 81.894531 15.605469 L 81.894531 14.121094 L 132.277344 14.121094 L 132.277344 15.605469 " fill-opacity="1" fill-rule="nonzero"/></g><g clip-path="url(#d968fba148)"><path fill="#ca6659" d="M 2.722656 15.605469 L 53.105469 15.605469 L 53.105469 14.121094 L 2.722656 14.121094 L 2.722656 15.605469 " fill-opacity="1" fill-rule="nonzero"/></g><g clip-path="url(#e8320b7690)"><path fill="#ca6659" d="M 67.5 20.863281 L 81.835938 6.269531 L 82.875 7.3125 L 67.5 22.964844 L 52.125 7.3125 L 53.164062 6.269531 L 67.5 20.863281 " fill-opacity="1" fill-rule="nonzero"/></g><path fill="#ca6659" d="M 81.894531 15.605469 L 77.800781 11.441406 L 78.839844 10.394531 L 82.929688 14.558594 L 81.894531 15.605469 " fill-opacity="1" fill-rule="nonzero"/><path fill="#ca6659" d="M 53.105469 15.605469 L 57.195312 11.441406 L 56.160156 10.394531 L 52.066406 14.558594 L 53.105469 15.605469 " fill-opacity="1" fill-rule="nonzero"/></svg>