<svg xmlns="http://www.w3.org/2000/svg" xmlns:xlink="http://www.w3.org/1999/xlink" width="100" zoomAndPan="magnify" viewBox="0 0 75 74.999997" height="100" preserveAspectRatio="xMidYMid meet" version="1.0"><path fill="#ffffff" d="M 40.660156 51.355469 C 36.167969 51.355469 31.777344 49.714844 28.464844 46.398438 C 26.613281 44.550781 26.613281 41.5625 28.460938 39.71875 C 30.304688 37.871094 33.296875 37.871094 35.140625 39.714844 C 38.367188 42.9375 43.964844 42.585938 47.621094 38.925781 L 62.191406 24.355469 C 64.140625 22.414062 65.253906 19.875 65.253906 17.390625 C 65.253906 15.910156 64.859375 13.757812 62.988281 11.878906 C 60.980469 9.871094 58.675781 9.539062 57.0625 9.621094 C 54.6875 9.726562 52.359375 10.8125 50.507812 12.664062 L 42.148438 21.015625 C 40.195312 19.0625 32.167969 17.628906 29.996094 19.808594 L 43.820312 5.984375 C 47.335938 2.46875 51.875 0.40625 56.609375 0.179688 C 61.550781 -0.046875 66.183594 1.730469 69.652344 5.199219 C 72.90625 8.449219 74.699219 12.777344 74.699219 17.394531 C 74.695312 22.367188 72.570312 27.339844 68.859375 31.039062 L 54.289062 45.609375 C 50.484375 49.429688 45.515625 51.355469 40.660156 51.355469 Z M 40.660156 51.355469 " fill-opacity="1" fill-rule="nonzero"/><path fill="#ffffff" d="M 34.050781 23.644531 C 38.535156 23.644531 42.929688 25.285156 46.246094 28.601562 C 48.097656 30.449219 48.09375 33.4375 46.246094 35.28125 C 44.402344 37.128906 41.414062 37.128906 39.566406 35.28125 C 36.34375 32.0625 30.746094 32.414062 27.085938 36.070312 L 12.515625 50.640625 C 10.566406 52.585938 9.449219 55.121094 9.449219 57.605469 C 9.449219 59.082031 9.847656 61.238281 11.722656 63.117188 C 13.730469 65.121094 16.035156 65.460938 17.644531 65.382812 C 20.019531 65.269531 22.347656 64.1875 24.199219 62.335938 L 32.550781 53.984375 C 34.503906 55.9375 42.53125 57.371094 44.710938 55.191406 L 30.882812 69.015625 C 27.371094 72.53125 22.828125 74.59375 18.097656 74.820312 C 13.152344 75.050781 8.519531 73.273438 5.046875 69.800781 C 1.792969 66.550781 0.00390625 62.222656 0.00390625 57.605469 C 0.0078125 52.632812 2.128906 47.660156 5.839844 43.960938 L 20.410156 29.390625 C 24.222656 25.574219 29.195312 23.644531 34.050781 23.644531 Z M 34.050781 23.644531 " fill-opacity="1" fill-rule="nonzero"/></svg>